<svg xmlns="http://www.w3.org/2000/svg" viewBox="0 0 1000 1000" width="1000" height="1000"><defs><clipPath clipPathUnits="userSpaceOnUse" id="cp1"><path d="M0 0L1000 0L1000 1000L0 1000Z" /></clipPath></defs><style>tspan { white-space:pre }.shp0 { fill: #494089 } .shp1 { fill: #a37dff } .shp2 { fill: #ccbbff } .shp3 { fill: #ffffff } .shp4 { fill: #90c9ea } .shp5 { fill: #abc3ff } .shp6 { fill: #79a1f2 } .shp7 { fill: #618de5 } .shp8 { fill: #7b91ff } .shp9 { fill: #80c3ff } </style><g clip-path="url(#cp1)"><path class="shp0" d="M193.05 319.14C157.8 330.51 116.96 348.23 110.43 384.7C106.17 408.46 119.97 433.32 140.76 445.6C150.9 451.59 163.35 455.81 168.66 466.33C176.91 482.67 162.09 501.41 146.44 510.92C130.8 520.43 111.71 527.97 104.59 544.83C99.89 555.95 101.73 568.89 106.38 580.03C123.43 620.86 173.12 638.75 217.32 636.56C261.51 634.38 303.43 617.16 346.79 608.3C495.66 577.85 651.76 646.95 800.38 615.29C823.51 610.36 846.81 602.65 864.67 587.15C884.8 569.69 896.23 543.34 897.96 516.74C899.6 491.37 890.61 462.79 867.9 451.36C854.62 444.68 838.76 444.95 824.35 448.59C815.15 450.91 806.11 454.54 796.62 454.6C787.13 454.66 776.69 449.91 773.94 440.83C771.05 431.28 777.64 421.42 785.2 414.9C800.57 401.65 821.12 395.03 835.08 380.3C848.51 366.13 854.16 345 849.6 326.01C845.04 307.02 830.41 290.76 812.01 284.23C765.11 267.58 714.01 312.97 666.05 299.67C662.49 298.68 658.74 297.16 656.87 293.97C655.04 290.87 655.46 286.92 656.51 283.47C662.38 264.16 685.2 251.87 686.2 231.71C686.75 220.75 680.27 210.49 672.1 203.16C615.97 152.8 534.65 212.71 477.43 231.62C383.33 262.71 287.41 288.68 193.05 319.14Z" /><path class="shp1" d="M568.94 436.67C568.94 474.75 538.07 505.61 500 505.61C461.93 505.61 431.06 474.75 431.06 436.67C431.06 398.6 461.93 367.74 500 367.74C538.07 367.74 568.94 398.6 568.94 436.67Z" /><path class="shp2" d="M431.61 428.09C452.07 431 486.45 416.39 497.47 414.26C519.88 409.91 542.89 415.09 565.73 415.84C564.15 410.85 562 406.11 559.39 401.68C550.99 402.02 542.14 400.57 533.67 400.32C517.58 399.85 501.58 404.08 485.52 403.11C478.1 402.66 461.39 396.16 446.2 393.6C438.42 403.3 433.22 415.13 431.61 428.09ZM500 367.74C493 367.74 486.24 368.79 479.87 370.73C488.51 375.66 505.82 377.43 509.83 377.97C517.05 378.94 524.9 379.28 531.1 375.46C531.18 375.4 531.27 375.34 531.35 375.28C521.94 370.47 511.29 367.74 500 367.74ZM568.91 437.63C549.05 432.62 528.02 432.21 508.01 436.58C497.13 438.96 486.6 442.69 475.79 445.36C462.2 448.71 448.19 450.33 434.2 450.22C433.61 450.22 433 450.2 432.39 450.17C435.13 463.96 441.98 476.26 451.61 485.76C468.12 479.9 483.98 472.23 498.79 462.89C511.76 454.73 524.73 445 539.99 443.61C549.46 442.74 558.77 445.21 568.15 447.15C568.62 444.04 568.87 440.86 568.91 437.63ZM565.26 458.88C555.91 457.49 539.2 465.72 535.1 469.18C531.45 472.28 528.37 476.06 524.43 478.77C519.42 482.22 513.37 483.71 507.49 485.23C495.61 488.3 483.82 491.7 472.14 495.43C470.65 495.9 469.05 496.55 468.32 497.89C477.81 502.81 488.57 505.61 500 505.61C508 505.61 515.67 504.23 522.81 501.73C529.96 491.52 534.23 478.29 545.56 473.49C547.47 472.67 554.19 471.71 560.27 470.14C562.26 466.57 563.93 462.8 565.26 458.88Z" /><path class="shp3" d="M705.85 641.67C688.73 550.04 608.33 480.67 511.73 480.67C415.13 480.67 334.73 550.04 317.61 641.67L705.85 641.67Z" /><path class="shp4" d="M547.92 593.78C547.01 600.71 536.28 605 523.97 603.38C511.65 601.75 502.41 594.83 503.32 587.91C504.23 580.99 514.96 576.69 527.27 578.31C539.59 579.94 548.83 586.86 547.92 593.78Z" /><path class="shp5" d="M393.19 319.17C393.19 333.26 381.77 344.67 367.69 344.67C353.6 344.67 342.19 333.26 342.19 319.17C342.19 305.09 353.6 293.67 367.69 293.67C381.77 293.67 393.19 305.09 393.19 319.17Z" /><path class="shp6" d="M367.69 293.67C363.15 293.67 358.9 294.87 355.22 296.94C355.4 297.25 355.6 297.54 355.84 297.78C358.42 300.38 364.55 300.49 367.98 300.66C372.99 300.9 378.05 300.23 382.82 298.69C378.58 295.55 373.36 293.67 367.69 293.67ZM387.19 307.31C388.03 307.02 388.88 306.71 389.65 306.26C388.99 305.14 388.26 304.06 387.44 303.06C384.9 304.2 382.36 305.34 379.81 306.48C377.84 307.36 375.86 308.25 373.76 308.8C370.68 309.61 367.46 309.66 364.28 309.63C357.67 309.58 351.21 308.95 344.68 308.23C343.1 311.55 342.19 315.25 342.19 319.17C342.19 321.03 342.39 322.83 342.77 324.57C344.12 324.04 345.3 323.17 346.52 322.39C349.78 320.33 353.46 319.04 357.1 317.78C367.13 314.29 377.16 310.8 387.19 307.31ZM391.12 309.12C389.15 310.89 387.68 313.23 385.53 314.91C383.26 316.68 380.74 318.13 378.06 319.18C376.17 319.93 374.2 320.48 372.39 321.39C371.71 321.74 371 322.21 370.84 322.94C370.54 324.24 372.08 325.18 373.38 325.49C375.96 326.09 378.65 325.97 381.29 325.86L390.72 325.45C391.28 325.43 391.85 325.38 392.41 325.31C392.9 323.34 393.19 321.29 393.19 319.17C393.19 315.6 392.45 312.21 391.12 309.12ZM368.35 318.48C363.82 319.39 359.39 320.84 355.19 322.78C352.39 324.07 349.67 325.59 346.72 326.49C345.88 326.74 344.7 326.84 343.39 326.9C344.89 331.64 347.74 335.78 351.49 338.87C351.75 338.55 352 338.24 352.25 337.91C356.06 332.85 358.65 326.46 364.16 323.31C365.16 322.74 366.24 322.28 367.11 321.53C367.98 320.77 368.62 319.61 368.35 318.48ZM390.71 330.07C390.43 330.03 390.13 330.02 389.87 330.04L373.53 330.94C370.15 331.13 366.58 331.38 363.78 333.28C361.62 334.75 360.17 337.04 358.79 339.26C358.33 340.01 357.48 341.05 356.7 342.16C359.84 343.66 363.33 344.54 367.02 344.64C367.69 343.8 368.29 342.9 368.94 342.05C372.58 337.23 378.27 334.01 384.28 333.37C385.87 333.2 387.49 333.2 389.08 333.03C389.69 332.08 390.23 331.09 390.71 330.07Z" /><path class="shp7" d="M391.09 329.3C391.74 327.79 392.25 326.2 392.61 324.55C386.04 326.89 378.28 328.97 370 330.57C361.6 332.2 353.56 333.17 346.54 333.44C347.48 334.82 348.55 336.11 349.74 337.28C356.2 336.87 363.35 335.93 370.76 334.5C378.06 333.08 384.98 331.3 391.09 329.3Z" /><path class="shp3" d="M342.68 335.5C333.54 335.5 326.08 334.04 325.23 329.65C324.43 325.51 329.84 321.21 341.3 316.88C342.33 316.49 343.49 317.01 343.88 318.04C344.27 319.07 343.75 320.23 342.71 320.62C331.1 325.01 329.05 328.3 329.16 328.89C329.58 331.07 343.99 333.61 370 328.57C380.91 326.45 390.97 323.52 398.31 320.31C406.72 316.64 408.1 314.09 408 313.61C407.89 313.01 404.59 310.65 391.52 311.03C390.45 311.07 389.5 310.19 389.46 309.09C389.43 307.98 390.3 307.06 391.4 307.03C404.19 306.65 411.11 308.61 411.93 312.85C412.64 316.5 408.71 320.14 399.92 323.98C392.31 327.3 381.95 330.33 370.76 332.5C363.17 333.97 352.04 335.5 342.68 335.5Z" /><path class="shp8" d="M780.36 376.45C774.96 386.43 762.49 390.14 752.52 384.74C742.54 379.34 738.83 366.87 744.23 356.9C749.63 346.92 762.1 343.21 772.07 348.61C782.05 354.01 785.76 366.48 780.36 376.45Z" /><path class="shp9" d="M772.07 348.61C768.86 346.87 765.39 346.09 761.99 346.15C762 346.44 762.03 346.72 762.11 346.98C762.93 349.81 767.24 352.24 769.61 353.67C773.06 355.76 776.9 357.23 780.87 357.97C779.07 354.12 776.09 350.79 772.07 348.61ZM780.66 365.75C781.37 365.87 782.09 365.98 782.8 365.95C782.77 364.91 782.67 363.87 782.47 362.84C780.23 362.67 777.99 362.5 775.75 362.34C774.02 362.21 772.27 362.07 770.58 361.66C768.09 361.05 765.78 359.85 763.54 358.61C758.88 356.04 754.54 353.12 750.19 350.11C747.8 351.85 745.73 354.12 744.23 356.9C743.52 358.21 742.98 359.57 742.57 360.95C743.73 361.09 744.91 360.92 746.07 360.84C749.17 360.63 752.27 361.13 755.33 361.63C763.77 363 772.22 364.38 780.66 365.75ZM782.75 368.54C780.67 369.04 778.74 370.13 776.57 370.5C774.28 370.88 771.94 370.94 769.64 370.66C768.01 370.46 766.41 370.1 764.77 370.05C764.17 370.04 763.48 370.1 763.08 370.55C762.37 371.36 763.1 372.62 763.91 373.33C765.5 374.75 767.45 375.7 769.37 376.63C771.65 377.74 773.92 378.85 776.2 379.96C776.61 380.15 777.03 380.34 777.46 380.51C778.56 379.3 779.55 377.96 780.36 376.46C781.73 373.93 782.51 371.24 782.75 368.54ZM763.03 366.44C759.47 365.35 755.78 364.67 752.06 364.44C749.58 364.28 747.07 364.31 744.64 363.82C743.95 363.68 743.08 363.29 742.12 362.83C741.37 366.77 741.8 370.79 743.27 374.41C743.57 374.29 743.88 374.17 744.17 374.03C748.82 371.9 753.1 368.37 758.21 368.25C759.14 368.23 760.08 368.33 760.99 368.12C761.89 367.92 762.79 367.34 763.03 366.44ZM774.43 383.22C774.24 383.09 774.04 382.97 773.84 382.88C769.87 381 765.9 379.13 761.92 377.26C759.46 376.09 756.83 374.9 754.12 375.17C752.02 375.39 750.12 376.45 748.3 377.49C747.68 377.85 746.68 378.26 745.7 378.75C747.35 381.02 749.48 382.98 752.06 384.46C752.86 384.12 753.63 383.72 754.41 383.36C758.84 381.34 764.11 381.24 768.61 383.1C769.8 383.59 770.95 384.2 772.14 384.69C772.93 384.26 773.7 383.76 774.43 383.22Z" /><path class="shp3" d="M360.36 558.64L334.25 608.18L327.06 604.38C323.21 602.36 321.74 597.59 323.77 593.75L342.54 558.14C344.57 554.29 349.33 552.82 353.18 554.85L360.36 558.64ZM687.59 607.14L672.01 568.14L679.56 565.13C683.6 563.51 688.18 565.48 689.79 569.52L699.53 593.9C701.14 597.94 699.17 602.52 695.13 604.13L687.59 607.14ZM445.64 497.84L400.15 530.5L395.41 523.9C392.88 520.37 393.68 515.45 397.22 512.91L429.91 489.44C433.44 486.9 438.36 487.71 440.9 491.24L445.64 497.84ZM651.74 551.94L607.07 518.17L611.97 511.69C614.59 508.22 619.53 507.53 623 510.15L655.11 534.43C658.58 537.05 659.27 541.99 656.64 545.46L651.74 551.94Z" /><path class="shp4" d="M447.82 531.41C451.32 538.31 441.58 550.28 426.07 558.16C410.56 566.03 395.14 566.83 391.64 559.93C388.14 553.04 397.88 541.06 413.39 533.19C428.9 525.31 444.32 524.52 447.82 531.41Z" /><path class="shp0" d="M415.39 539.19C429.4 532.08 443.3 530.76 448.45 535.65C448.64 534.11 448.46 532.67 447.82 531.41C444.32 524.52 428.9 525.32 413.39 533.19C397.88 541.06 388.14 553.04 391.64 559.93C391.98 560.6 392.46 561.17 393.01 561.7C393.9 554.8 402.72 545.63 415.39 539.19Z" /><path class="shp4" d="M637.55 555.15C634.8 559.55 624.54 558.1 614.63 551.91C604.73 545.71 598.93 537.13 601.69 532.73C604.44 528.33 614.7 529.78 624.6 535.97C634.5 542.16 640.3 550.75 637.55 555.15Z" /><path class="shp0" d="M621.84 539.2C630.79 544.79 636.36 552.33 635.33 556.98C636.29 556.56 637.04 555.95 637.55 555.15C640.3 550.75 634.5 542.16 624.6 535.97C614.7 529.78 604.44 528.33 601.69 532.73C601.42 533.16 601.26 533.63 601.15 534.13C605.42 532.25 613.75 534.14 621.84 539.2ZM527.27 578.31C514.96 576.69 504.24 580.98 503.32 587.9C503.26 588.41 503.26 588.91 503.3 589.41C505.97 583.82 515.63 580.59 526.57 582.03C537.99 583.54 546.75 589.61 547.24 596C547.57 595.3 547.82 594.56 547.92 593.78C548.83 586.86 539.59 579.94 527.27 578.31Z" /><path class="shp4" d="M227.73 407.51C227.73 411.1 224.82 414.01 221.23 414.01C217.64 414.01 214.73 411.1 214.73 407.51C214.73 403.92 217.64 401.01 221.23 401.01C224.82 401.01 227.73 403.92 227.73 407.51ZM598.98 229.51C597.37 229.51 596.06 228.2 596.06 226.59C596.06 224.98 597.37 223.68 598.98 223.68C600.59 223.68 601.9 224.98 601.9 226.59C601.9 228.2 600.59 229.51 598.98 229.51ZM640.31 283.59C638.7 283.59 637.4 282.29 637.4 280.68C637.4 279.07 638.7 277.76 640.31 277.76C641.92 277.76 643.23 279.07 643.23 280.68C643.23 282.29 641.92 283.59 640.31 283.59ZM153.23 378.51C151.62 378.51 150.31 377.2 150.31 375.59C150.31 373.98 151.62 372.68 153.23 372.68C154.84 372.68 156.15 373.98 156.15 375.59C156.15 377.2 154.84 378.51 153.23 378.51Z" /><path class="shp3" d="M570.24 331.93C570.24 334 568.56 335.68 566.48 335.68C564.41 335.68 562.73 334 562.73 331.93C562.73 329.85 564.41 328.17 566.48 328.17C568.56 328.17 570.24 329.85 570.24 331.93ZM727.98 504.43C727.98 506.5 726.3 508.18 724.23 508.18C722.16 508.18 720.48 506.5 720.48 504.43C720.48 502.35 722.16 500.67 724.23 500.67C726.3 500.67 727.98 502.35 727.98 504.43ZM838.74 510.67C838.74 512.75 837.06 514.43 834.98 514.43C832.91 514.43 831.23 512.75 831.23 510.67C831.23 508.6 832.91 506.92 834.98 506.92C837.06 506.92 838.74 508.6 838.74 510.67ZM247.98 565.43C247.98 567.5 246.3 569.18 244.23 569.18C242.16 569.18 240.48 567.5 240.48 565.43C240.48 563.35 242.16 561.67 244.23 561.67C246.3 561.67 247.98 563.35 247.98 565.43ZM464.74 293.67C464.74 295.75 463.06 297.43 460.98 297.43C458.91 297.43 457.23 295.75 457.23 293.67C457.23 291.6 458.91 289.92 460.98 289.92C463.06 289.92 464.74 291.6 464.74 293.67ZM419.22 384.9L424.22 387.76L419.12 390.43L416.26 395.44L413.59 390.33L408.58 387.47L413.69 384.8L416.55 379.79L419.22 384.9ZM654.97 332.23L658.24 334.1L654.9 335.85L653.04 339.11L651.29 335.78L648.02 333.91L651.36 332.17L653.23 328.9L654.97 332.23ZM269.3 489.06L272.57 490.93L269.23 492.68L267.36 495.94L265.62 492.61L262.35 490.74L265.69 489L267.55 485.73L269.3 489.06ZM271.17 355.8L274.43 357.67L271.1 359.41L269.23 362.68L267.49 359.34L264.22 357.47L267.56 355.73L269.42 352.46L271.17 355.8ZM171.23 554.67L174.5 556.54L171.16 558.28L169.3 561.55L167.55 558.22L164.28 556.35L167.62 554.61L169.49 551.34L171.23 554.67ZM764.91 462.46L768.18 464.33L764.84 466.08L762.98 469.34L761.23 466.01L757.96 464.14L761.3 462.4L763.17 459.13L764.91 462.46ZM805.23 594.01L808.5 595.87L805.16 597.62L803.3 600.88L801.55 597.55L798.28 595.68L801.62 593.94L803.49 590.67L805.23 594.01Z" /></g></svg>