<svg xmlns="http://www.w3.org/2000/svg" viewBox="0 0 797 454" width="797" height="454"><defs><clipPath clipPathUnits="userSpaceOnUse" id="cp1"><path d="M0 0L1000 0L1000 1000L0 1000Z" /></clipPath></defs><style>tspan { white-space:pre }.shp0 { fill: #494089 } .shp1 { fill: #a37dff } .shp2 { fill: #ccbbff } .shp3 { fill: #ffffff } .shp4 { fill: #90c9ea } .shp5 { fill: #abc3ff } .shp6 { fill: #79a1f2 } .shp7 { fill: #618de5 } .shp8 { fill: #7b91ff } .shp9 { fill: #80c3ff } </style><g clip-path="url(#cp1)"><path class="shp0" d="M91.05 136.14C55.8 147.51 14.96 165.23 8.43 201.7C4.17 225.46 17.97 250.32 38.76 262.6C48.9 268.59 61.35 272.81 66.66 283.33C74.91 299.67 60.09 318.41 44.44 327.92C28.8 337.43 9.71 344.97 2.59 361.83C-2.11 372.95 -0.27 385.89 4.38 397.03C21.43 437.86 71.12 455.75 115.32 453.56C159.51 451.38 201.43 434.16 244.79 425.3C393.66 394.85 549.76 463.95 698.38 432.29C721.51 427.36 744.81 419.65 762.67 404.15C782.8 386.69 794.23 360.34 795.96 333.74C797.6 308.37 788.61 279.79 765.9 268.36C752.62 261.68 736.76 261.95 722.35 265.59C713.15 267.91 704.11 271.54 694.62 271.6C685.13 271.66 674.69 266.91 671.94 257.83C669.05 248.28 675.64 238.42 683.2 231.9C698.57 218.65 719.12 212.03 733.08 197.3C746.51 183.13 752.16 162 747.6 143.01C743.04 124.02 728.41 107.76 710.01 101.23C663.11 84.58 612.01 129.97 564.05 116.67C560.49 115.68 556.74 114.16 554.87 110.97C553.04 107.87 553.46 103.92 554.51 100.47C560.38 81.16 583.2 68.87 584.2 48.71C584.75 37.75 578.27 27.49 570.1 20.16C513.97 -30.2 432.65 29.71 375.43 48.62C281.33 79.71 185.41 105.68 91.05 136.14Z" /><path class="shp1" d="M466.94 253.67C466.94 291.75 436.07 322.61 398 322.61C359.93 322.61 329.06 291.75 329.06 253.67C329.06 215.6 359.93 184.74 398 184.74C436.07 184.74 466.94 215.6 466.94 253.67Z" /><path class="shp2" d="M329.61 245.09C350.07 248 384.45 233.39 395.47 231.26C417.88 226.91 440.89 232.09 463.73 232.84C462.15 227.85 460 223.11 457.39 218.68C448.99 219.02 440.14 217.57 431.67 217.32C415.58 216.85 399.58 221.08 383.52 220.11C376.1 219.66 359.39 213.16 344.2 210.6C336.42 220.3 331.22 232.13 329.61 245.09ZM398 184.74C391 184.74 384.24 185.79 377.87 187.73C386.51 192.66 403.82 194.43 407.83 194.97C415.05 195.94 422.9 196.28 429.1 192.46C429.18 192.4 429.27 192.34 429.35 192.28C419.94 187.47 409.29 184.74 398 184.74ZM466.91 254.63C447.05 249.62 426.02 249.21 406.01 253.58C395.13 255.96 384.6 259.69 373.79 262.36C360.2 265.71 346.19 267.33 332.2 267.22C331.61 267.22 331 267.2 330.39 267.17C333.13 280.96 339.98 293.26 349.61 302.76C366.12 296.9 381.98 289.23 396.79 279.89C409.76 271.73 422.73 262 437.99 260.61C447.46 259.74 456.77 262.21 466.15 264.15C466.62 261.04 466.87 257.86 466.91 254.63ZM463.26 275.88C453.91 274.49 437.2 282.72 433.1 286.18C429.45 289.28 426.37 293.06 422.43 295.77C417.42 299.22 411.37 300.71 405.49 302.23C393.61 305.3 381.82 308.7 370.14 312.43C368.65 312.9 367.05 313.55 366.32 314.89C375.81 319.81 386.57 322.61 398 322.61C406 322.61 413.67 321.23 420.81 318.73C427.96 308.52 432.23 295.29 443.56 290.49C445.47 289.67 452.19 288.71 458.27 287.14C460.26 283.57 461.93 279.8 463.26 275.88Z" /><path class="shp3" d="M603.85 458.67C586.73 367.04 506.33 297.67 409.73 297.67C313.13 297.67 232.73 367.04 215.61 458.67L603.85 458.67Z" /><path class="shp4" d="M445.92 410.78C445.01 417.71 434.28 422 421.97 420.38C409.65 418.75 400.41 411.83 401.32 404.91C402.23 397.99 412.96 393.69 425.27 395.31C437.59 396.94 446.83 403.86 445.92 410.78Z" /><path class="shp5" d="M291.19 136.17C291.19 150.26 279.77 161.67 265.69 161.67C251.6 161.67 240.19 150.26 240.19 136.17C240.19 122.09 251.6 110.67 265.69 110.67C279.77 110.67 291.19 122.09 291.19 136.17Z" /><path class="shp6" d="M265.69 110.67C261.15 110.67 256.9 111.87 253.22 113.94C253.4 114.25 253.6 114.54 253.84 114.78C256.42 117.38 262.55 117.49 265.98 117.66C270.99 117.9 276.05 117.23 280.82 115.69C276.58 112.55 271.36 110.67 265.69 110.67ZM285.19 124.31C286.03 124.02 286.88 123.71 287.65 123.26C286.99 122.14 286.26 121.06 285.44 120.06C282.9 121.2 280.36 122.34 277.81 123.48C275.84 124.36 273.86 125.25 271.76 125.8C268.68 126.61 265.46 126.66 262.28 126.63C255.67 126.58 249.21 125.95 242.68 125.23C241.1 128.55 240.19 132.25 240.19 136.17C240.19 138.03 240.39 139.83 240.77 141.57C242.12 141.04 243.3 140.17 244.52 139.39C247.78 137.33 251.46 136.04 255.1 134.78C265.13 131.29 275.16 127.8 285.19 124.31ZM289.12 126.12C287.15 127.89 285.68 130.23 283.53 131.91C281.26 133.68 278.74 135.13 276.06 136.18C274.17 136.93 272.2 137.48 270.39 138.39C269.71 138.74 269 139.21 268.84 139.94C268.54 141.24 270.08 142.18 271.38 142.49C273.96 143.09 276.65 142.97 279.29 142.86L288.72 142.45C289.28 142.43 289.85 142.38 290.41 142.31C290.9 140.34 291.19 138.29 291.19 136.17C291.19 132.6 290.45 129.21 289.12 126.12ZM266.35 135.48C261.82 136.39 257.39 137.84 253.19 139.78C250.39 141.07 247.67 142.59 244.72 143.49C243.88 143.74 242.7 143.84 241.39 143.9C242.89 148.64 245.74 152.78 249.49 155.87C249.75 155.55 250 155.24 250.25 154.91C254.06 149.85 256.65 143.46 262.16 140.31C263.16 139.74 264.24 139.28 265.11 138.53C265.98 137.77 266.62 136.61 266.35 135.48ZM288.71 147.07C288.43 147.03 288.13 147.02 287.87 147.04L271.53 147.94C268.15 148.13 264.58 148.38 261.78 150.28C259.62 151.75 258.17 154.04 256.79 156.26C256.33 157.01 255.48 158.05 254.7 159.16C257.84 160.66 261.33 161.54 265.02 161.64C265.69 160.8 266.29 159.9 266.94 159.05C270.58 154.23 276.27 151.01 282.28 150.37C283.87 150.2 285.49 150.2 287.08 150.03C287.69 149.08 288.23 148.09 288.71 147.07Z" /><path class="shp7" d="M289.09 146.3C289.74 144.79 290.25 143.2 290.61 141.55C284.04 143.89 276.28 145.97 268 147.57C259.6 149.2 251.56 150.17 244.54 150.44C245.48 151.82 246.55 153.11 247.74 154.28C254.2 153.87 261.35 152.93 268.76 151.5C276.06 150.08 282.98 148.3 289.09 146.3Z" /><path class="shp3" d="M240.68 152.5C231.54 152.5 224.08 151.04 223.23 146.65C222.43 142.51 227.84 138.21 239.3 133.88C240.33 133.49 241.49 134.01 241.88 135.04C242.27 136.07 241.75 137.23 240.71 137.62C229.1 142.01 227.05 145.3 227.16 145.89C227.58 148.07 241.99 150.61 268 145.57C278.91 143.45 288.97 140.52 296.31 137.31C304.72 133.64 306.1 131.09 306 130.61C305.89 130.01 302.59 127.65 289.52 128.03C288.45 128.07 287.5 127.19 287.46 126.09C287.43 124.98 288.3 124.06 289.4 124.03C302.19 123.65 309.11 125.61 309.93 129.85C310.64 133.5 306.71 137.14 297.92 140.98C290.31 144.3 279.95 147.33 268.76 149.5C261.17 150.97 250.04 152.5 240.68 152.5Z" /><path class="shp8" d="M678.36 193.45C672.96 203.43 660.49 207.14 650.52 201.74C640.54 196.34 636.83 183.87 642.23 173.9C647.63 163.92 660.1 160.21 670.07 165.61C680.05 171.01 683.76 183.48 678.36 193.45Z" /><path class="shp9" d="M670.07 165.61C666.86 163.87 663.39 163.09 659.99 163.15C660 163.44 660.03 163.72 660.11 163.98C660.93 166.81 665.24 169.24 667.61 170.67C671.06 172.76 674.9 174.23 678.87 174.97C677.07 171.12 674.09 167.79 670.07 165.61ZM678.66 182.75C679.37 182.87 680.09 182.98 680.8 182.95C680.77 181.91 680.67 180.87 680.47 179.84C678.23 179.67 675.99 179.5 673.75 179.34C672.02 179.21 670.27 179.07 668.58 178.66C666.09 178.05 663.78 176.85 661.54 175.61C656.88 173.04 652.54 170.12 648.19 167.11C645.8 168.85 643.73 171.12 642.23 173.9C641.52 175.21 640.98 176.57 640.57 177.95C641.73 178.09 642.91 177.92 644.07 177.84C647.17 177.63 650.27 178.13 653.33 178.63C661.77 180 670.22 181.38 678.66 182.75ZM680.75 185.54C678.67 186.04 676.74 187.13 674.57 187.5C672.28 187.88 669.94 187.94 667.64 187.66C666.01 187.46 664.41 187.1 662.77 187.05C662.17 187.04 661.48 187.1 661.08 187.55C660.37 188.36 661.1 189.62 661.91 190.33C663.5 191.75 665.45 192.7 667.37 193.63C669.65 194.74 671.92 195.85 674.2 196.96C674.61 197.15 675.03 197.34 675.46 197.51C676.56 196.3 677.55 194.96 678.36 193.46C679.73 190.93 680.51 188.24 680.75 185.54ZM661.03 183.44C657.47 182.35 653.78 181.67 650.06 181.44C647.58 181.28 645.07 181.31 642.64 180.82C641.95 180.68 641.08 180.29 640.12 179.83C639.37 183.77 639.8 187.79 641.27 191.41C641.57 191.29 641.88 191.17 642.17 191.03C646.82 188.9 651.1 185.37 656.21 185.25C657.14 185.23 658.08 185.33 658.99 185.12C659.89 184.92 660.79 184.34 661.03 183.44ZM672.43 200.22C672.24 200.09 672.04 199.97 671.84 199.88C667.87 198 663.9 196.13 659.92 194.26C657.46 193.09 654.83 191.9 652.12 192.17C650.02 192.39 648.12 193.45 646.3 194.49C645.68 194.85 644.68 195.26 643.7 195.75C645.35 198.02 647.48 199.98 650.06 201.46C650.86 201.12 651.63 200.72 652.41 200.36C656.84 198.34 662.11 198.24 666.61 200.1C667.8 200.59 668.95 201.2 670.14 201.69C670.93 201.26 671.7 200.76 672.43 200.22Z" /><path class="shp3" d="M258.36 375.64L232.25 425.18L225.06 421.38C221.21 419.36 219.74 414.59 221.77 410.75L240.54 375.14C242.57 371.29 247.33 369.82 251.18 371.85L258.36 375.64ZM585.59 424.14L570.01 385.14L577.56 382.13C581.6 380.51 586.18 382.48 587.79 386.52L597.53 410.9C599.14 414.94 597.17 419.52 593.13 421.13L585.59 424.14ZM343.64 314.84L298.15 347.5L293.41 340.9C290.88 337.37 291.68 332.45 295.22 329.91L327.91 306.44C331.44 303.9 336.36 304.71 338.9 308.24L343.64 314.84ZM549.74 368.94L505.07 335.17L509.97 328.69C512.59 325.22 517.53 324.53 521 327.15L553.11 351.43C556.58 354.05 557.27 358.99 554.64 362.46L549.74 368.94Z" /><path class="shp4" d="M345.82 348.41C349.32 355.31 339.58 367.28 324.07 375.16C308.56 383.03 293.14 383.83 289.64 376.93C286.14 370.04 295.88 358.06 311.39 350.19C326.9 342.31 342.32 341.52 345.82 348.41Z" /><path class="shp0" d="M313.39 356.19C327.4 349.08 341.3 347.76 346.45 352.65C346.64 351.11 346.46 349.67 345.82 348.41C342.32 341.52 326.9 342.32 311.39 350.19C295.88 358.06 286.14 370.04 289.64 376.93C289.98 377.6 290.46 378.17 291.01 378.7C291.9 371.8 300.72 362.63 313.39 356.19Z" /><path class="shp4" d="M535.55 372.15C532.8 376.55 522.54 375.1 512.63 368.91C502.73 362.71 496.93 354.13 499.69 349.73C502.44 345.33 512.7 346.78 522.6 352.97C532.5 359.16 538.3 367.75 535.55 372.15Z" /><path class="shp0" d="M519.84 356.2C528.79 361.79 534.36 369.33 533.33 373.98C534.29 373.56 535.04 372.95 535.55 372.15C538.3 367.75 532.5 359.16 522.6 352.97C512.7 346.78 502.44 345.33 499.69 349.73C499.42 350.16 499.26 350.63 499.15 351.13C503.42 349.25 511.75 351.14 519.84 356.2ZM425.27 395.31C412.96 393.69 402.24 397.98 401.32 404.9C401.26 405.41 401.26 405.91 401.3 406.41C403.97 400.82 413.63 397.59 424.57 399.03C435.99 400.54 444.75 406.61 445.24 413C445.57 412.3 445.82 411.56 445.92 410.78C446.83 403.86 437.59 396.94 425.27 395.31Z" /><path class="shp4" d="M125.73 224.51C125.73 228.1 122.82 231.01 119.23 231.01C115.64 231.01 112.73 228.1 112.73 224.51C112.73 220.92 115.64 218.01 119.23 218.01C122.82 218.01 125.73 220.92 125.73 224.51ZM496.98 46.51C495.37 46.51 494.06 45.2 494.06 43.59C494.06 41.98 495.37 40.68 496.98 40.68C498.59 40.68 499.9 41.98 499.9 43.59C499.9 45.2 498.59 46.51 496.98 46.51ZM538.31 100.59C536.7 100.59 535.4 99.29 535.4 97.68C535.4 96.07 536.7 94.76 538.31 94.76C539.92 94.76 541.23 96.07 541.23 97.68C541.23 99.29 539.92 100.59 538.31 100.59ZM51.23 195.51C49.62 195.51 48.31 194.2 48.31 192.59C48.31 190.98 49.62 189.68 51.23 189.68C52.84 189.68 54.15 190.98 54.15 192.59C54.15 194.2 52.84 195.51 51.23 195.51Z" /><path class="shp3" d="M468.24 148.93C468.24 151 466.56 152.68 464.48 152.68C462.41 152.68 460.73 151 460.73 148.93C460.73 146.85 462.41 145.17 464.48 145.17C466.56 145.17 468.24 146.85 468.24 148.93ZM625.98 321.43C625.98 323.5 624.3 325.18 622.23 325.18C620.16 325.18 618.48 323.5 618.48 321.43C618.48 319.35 620.16 317.67 622.23 317.67C624.3 317.67 625.98 319.35 625.98 321.43ZM736.74 327.67C736.74 329.75 735.06 331.43 732.98 331.43C730.91 331.43 729.23 329.75 729.23 327.67C729.23 325.6 730.91 323.92 732.98 323.92C735.06 323.92 736.74 325.6 736.74 327.67ZM145.98 382.43C145.98 384.5 144.3 386.18 142.23 386.18C140.16 386.18 138.48 384.5 138.48 382.43C138.48 380.35 140.16 378.67 142.23 378.67C144.3 378.67 145.98 380.35 145.98 382.43ZM362.74 110.67C362.74 112.75 361.06 114.43 358.98 114.43C356.91 114.43 355.23 112.75 355.23 110.67C355.23 108.6 356.91 106.92 358.98 106.92C361.06 106.92 362.74 108.6 362.74 110.67ZM317.22 201.9L322.22 204.76L317.12 207.43L314.26 212.44L311.59 207.33L306.58 204.47L311.69 201.8L314.55 196.79L317.22 201.9ZM552.97 149.23L556.24 151.1L552.9 152.85L551.04 156.11L549.29 152.78L546.02 150.91L549.36 149.17L551.23 145.9L552.97 149.23ZM167.3 306.06L170.57 307.93L167.23 309.68L165.36 312.94L163.62 309.61L160.35 307.74L163.69 306L165.55 302.73L167.3 306.06ZM169.17 172.8L172.43 174.67L169.1 176.41L167.23 179.68L165.49 176.34L162.22 174.47L165.56 172.73L167.42 169.46L169.17 172.8ZM69.23 371.67L72.5 373.54L69.16 375.28L67.3 378.55L65.55 375.22L62.28 373.35L65.62 371.61L67.49 368.34L69.23 371.67ZM662.91 279.46L666.18 281.33L662.84 283.08L660.98 286.34L659.23 283.01L655.96 281.14L659.3 279.4L661.17 276.13L662.91 279.46ZM703.23 411.01L706.5 412.87L703.16 414.62L701.3 417.88L699.55 414.55L696.28 412.68L699.62 410.94L701.49 407.67L703.23 411.01Z" /></g></svg>