<?xml version="1.0" encoding="utf-8"?>
<!-- Generator: Adobe Illustrator 24.1.0, SVG Export Plug-In . SVG Version: 6.00 Build 0)  -->
<svg version="1.1" id="Layer_1" xmlns="http://www.w3.org/2000/svg" xmlns:xlink="http://www.w3.org/1999/xlink" x="0px" y="0px"
	 viewBox="0 0 360 62.1" style="enable-background:new 0 0 360 62.1;" xml:space="preserve">
<style type="text/css">
	.st0{fill:#154370;}
	.st1{fill:#B2B2B2;}
</style>
<g>
	<g>
		<g>
			<path class="st0" d="M198.1,23.6c1,1.2,2,2.4,3,3.5c1.4,1.5,2.7,3,4.1,4.5c0.4,0.4,1.1,0.7,1.6,1c0.1,0.1,0.2,0.2,0.3,0.3
				c-0.1,0.1-0.2,0.2-0.4,0.2c-1.6,0.2-3.1-0.2-4.3-1.5c-2-2.2-4-4.5-5.9-6.7c-0.5-0.6-1-0.9-1.9-0.9c-2,0.1-4.1,0-6.1,0
				c-0.2,0-0.5,0-0.7,0c-0.1,0.1-0.1,0.1-0.1,0.2c0,2.1-0.1,4.2,0,6.3c0,1.2,0.6,1.7,1.8,2c0.2,0,0.3,0.3,0.5,0.6
				c-2.4,0-4.5,0-6.7,0c-0.1-0.3-0.2-0.6,0.3-0.7c0.9-0.1,1.4-0.7,1.6-1.5c0.1-0.4,0.1-0.8,0.1-1.2c0-7.3,0-14.6,0-21.8
				c0-0.5-0.1-1.1-0.3-1.6c-0.2-0.6-0.7-1-1.4-1.1c-0.2,0-0.3-0.2-0.4-0.4c0.2-0.1,0.3-0.3,0.5-0.3c4.4,0,8.8-0.1,13.2,0
				c4.8,0.1,8.3,3.8,8.6,8.7c0.3,5.2-2.1,8.8-7.1,10.3C198.4,23.5,198.3,23.5,198.1,23.6z M187.8,23.5c3-0.1,6,0,8.9-0.3
				c2.5-0.3,4.4-1.7,5.5-4c1.8-3.6,1.6-7.3-0.2-10.9C200.7,6,198.7,4.9,196,5c-2.5,0-4.9,0-7.4,0c-0.9,0-0.9,0-0.9,0.8
				c0,5.6,0,11.2,0,16.7C187.8,22.8,187.8,23,187.8,23.5z"/>
		</g>
		<g>
			<path class="st0" d="M221,33c-0.1-0.4-0.1-0.6,0.4-0.7c1-0.2,1.5-0.7,1.6-1.7c0-0.3,0-0.5,0-0.8c0-7.3,0-14.7,0-22
				c0-0.4,0-0.8-0.2-1.2c-0.2-0.8-0.7-1.3-1.5-1.4c-0.5,0-0.5-0.3-0.4-0.7c0.1,0,0.2,0,0.4,0c3.9,0,7.7,0,11.6,0
				c1.6,0,3.2,0.3,4.7,1.1c4,2,4.4,7.2,0.7,9.8c-1.3,0.9-2.7,1.4-4.2,1.7c0.4,0.1,0.8,0.1,1.2,0.3c1.2,0.4,2.4,0.7,3.5,1.3
				c2.7,1.4,4.3,3.5,4.2,6.7c-0.2,3.3-1.7,5.6-4.8,6.9c-1.3,0.5-2.8,0.8-4.2,0.9c-4.3,0.1-8.5,0-12.8,0C221.3,33,221.2,33,221,33z
				 M225.3,17.3c0,0.1,0,0.2,0,0.2c0,4.8,0,9.6,0,14.4c0,0.4,0.2,0.5,0.6,0.5c2.7,0,5.3,0.1,8,0c5.5-0.2,8.8-6.1,6.2-10.9
				c-1.2-2.2-3.2-3.3-5.5-3.9c-3-0.8-6-0.5-9-0.5C225.4,17.2,225.3,17.3,225.3,17.3z M225.2,10.9c0,1.8,0,3.5,0,5.3
				c0,0.5,0.1,0.7,0.6,0.7c2,0,4.1,0,6.1-0.1c1.5,0,3-0.4,4.3-1.3c2.1-1.4,2.9-4,2.3-6.6c-0.6-2.1-2.4-3.6-4.9-3.8
				C231,4.9,228.3,5,225.7,5c-0.4,0-0.4,0.3-0.4,0.6C225.2,7.3,225.2,9.1,225.2,10.9z"/>
		</g>
		<g>
			<path class="st0" d="M6.9,33c-0.1-0.4-0.1-0.6,0.4-0.7c1.1-0.2,1.5-0.7,1.6-1.8c0-0.3,0-0.7,0-1.1c0-7.1,0-14.3,0-21.4
				c0-0.5,0-1.1-0.2-1.6C8.5,5.7,8,5.2,7.2,5.1c-0.2,0-0.3-0.3-0.4-0.4C7,4.6,7.1,4.5,7.3,4.4c3.9,0,7.9,0,11.8,0
				c1.8,0,3.6,0.5,5.1,1.5c2.9,2,3.3,6.1,0.8,8.6c-1.3,1.3-3,1.9-4.7,2.3c-0.1,0-0.2,0-0.4,0.1c0.6,0.1,1,0.2,1.4,0.3
				c1.2,0.4,2.4,0.7,3.5,1.3c2.7,1.4,4.3,3.6,4.2,6.8c-0.2,3.3-1.8,5.7-4.9,6.9c-1.2,0.5-2.6,0.8-3.9,0.8c-4.3,0.1-8.7,0-13,0
				C7,33,7,33,6.9,33z M11.2,17.2c0,0.2-0.1,0.3-0.1,0.4c0,4.8,0,9.6,0,14.4c0,0.4,0.2,0.5,0.6,0.5c2.6,0,5.3,0,7.9,0
				c1.9,0,3.7-0.7,5.1-2.1c3.5-3.7,2.4-9.5-2.1-11.8C18.9,16.7,15,17.3,11.2,17.2z M11.1,16.8c0.2,0,0.4,0.1,0.5,0.1
				c2.2,0,4.3,0,6.5-0.1c0.7,0,1.4-0.2,2.1-0.4c3.1-1,4.7-3.6,4.3-6.8C24.1,6.9,22,5.1,18.8,5c-2.3-0.1-4.7,0-7,0
				c-0.6,0-0.7,0.2-0.7,0.7c0,3.5,0,6.9,0,10.4C11.1,16.3,11.1,16.5,11.1,16.8z"/>
		</g>
		<g>
			<path class="st0" d="M259.4,17c0.6,0.1,1.1,0.2,1.7,0.4c1.2,0.5,2.5,0.8,3.7,1.5c5.3,3.1,4.1,9.9,0.3,12.4
				c-1.7,1.1-3.5,1.7-5.5,1.7c-4.4,0.1-8.7,0-13.1,0c-0.1,0-0.1,0-0.2,0c-0.2-0.4-0.1-0.6,0.4-0.7c0.8-0.1,1.3-0.7,1.5-1.5
				c0.1-0.3,0.1-0.7,0.1-1c0-7.3,0-14.7,0-22c0-0.1,0-0.3,0-0.4c-0.1-1.4-0.7-2-2-2.3c0-0.2,0-0.4,0-0.6c0.2,0,0.3,0,0.5,0
				c3.9,0,7.7,0,11.6,0c1.9,0,3.7,0.4,5.3,1.5c2.9,1.9,3.3,5.9,0.9,8.5c-1.2,1.2-2.6,1.9-4.3,2.3C260,16.8,259.7,16.8,259.4,17
				C259.4,16.9,259.4,17,259.4,17z M250.5,24.8c0,2.4,0,4.7,0,7.1c0,0.4,0.1,0.6,0.5,0.6c2.7,0,5.4,0,8.1,0c2.9-0.1,5.1-1.4,6.3-4.1
				c1.1-2.8,1.1-5.5-0.9-7.9c-1.4-1.7-3.4-2.6-5.5-2.9c-2.6-0.3-5.2-0.3-7.8-0.4c-0.5,0-0.7,0.1-0.7,0.7
				C250.5,20.2,250.5,22.5,250.5,24.8z M250.5,5c0,0.2-0.1,0.3-0.1,0.4c0,3.7,0,7.3,0,11c0,0.5,0.3,0.5,0.6,0.5c2,0,4.1,0,6.1-0.1
				c1-0.1,2.1-0.3,3.1-0.7c2.7-1.1,4.1-3.7,3.6-6.4c-0.4-2.7-2.2-4.4-5.3-4.6c-1.9-0.1-3.7-0.1-5.6-0.1C252.2,5,251.4,5,250.5,5z"/>
		</g>
		<g>
			<path class="st0" d="M350.3,29.7c0-0.3,0-0.5,0-0.8c0-7,0-14,0-21c0-0.3,0-0.6,0-0.9c-0.2-1.3-0.7-1.8-2-2c0-0.2,0-0.3,0-0.6
				c1.6,0,3.2,0,4.8,0c0.1,0.4,0.1,0.6-0.3,0.7c-1.1,0.2-1.5,0.7-1.6,1.8c-0.1,0.4-0.1,0.9-0.1,1.3c0,8.1,0,16.2,0,24.3
				c0,0.3-0.2,0.6-0.2,0.9c-0.3-0.2-0.6-0.3-0.8-0.5c-5.4-6.9-10.8-13.8-16.2-20.8c-1.3-1.7-2.6-3.4-3.9-5.1
				c-0.1-0.2-0.3-0.3-0.5-0.6c0,0.3,0,0.5,0,0.8c0,7.4,0,14.9,0,22.3c0,0.2,0,0.4,0,0.6c0.1,1.4,0.6,2.1,2.1,2.3c0,0.2,0,0.4,0,0.6
				c-1.6,0-3.2,0-4.8,0c-0.2-0.4-0.1-0.6,0.3-0.7c1.1-0.2,1.6-0.8,1.7-1.9c0-0.3,0-0.7,0-1c0-7.1,0-14.2,0-21.3c0-0.5,0-1.1-0.2-1.6
				c-0.2-0.8-0.7-1.3-1.5-1.4c-0.2,0-0.3-0.2-0.4-0.4c0.2-0.1,0.3-0.3,0.5-0.3c1,0,2.1,0,3.1,0c0.3,0,0.6,0.2,0.8,0.4
				c3.4,4.4,6.8,8.8,10.2,13.2c2.9,3.7,5.8,7.5,8.7,11.2C350,29.4,350.1,29.5,350.3,29.7z"/>
		</g>
		<g>
			<path class="st0" d="M292,4.4c0.1,1.5,0.1,2.9,0.2,4.5c-0.3-0.2-0.6-0.3-0.7-0.4c-1.1-2.3-3-3.4-5.5-3.5c-3.3-0.1-6.6,0-9.9,0
				c-0.3,0-0.5,0.1-0.5,0.5c0,3.4,0,6.7,0,10.1c0,0.1,0,0.1,0.1,0.3c0.2,0,0.4,0,0.6,0c2.7,0,5.5,0,8.2,0c0.8,0,1.6-0.2,2.4-0.4
				c0.8-0.2,1.4-0.6,1.8-1.4c0.1-0.2,0.4-0.3,0.6-0.5c0,1.8,0,3.5,0,5.3c-0.3-0.2-0.5-0.2-0.6-0.4c-0.7-1.6-2.1-2.1-3.6-2.1
				c-3-0.1-6,0-9.1-0.1c-0.5,0-0.4,0.4-0.4,0.7c0,2.9,0,5.7,0,8.6c0,2.1,0,4.1,0,6.2c0,0.5,0.1,0.7,0.6,0.6c3.3,0,6.6,0,9.9,0
				c2.5,0,4.5-1.1,6-3.2c0.2-0.3,0.3-0.8,1-0.6c-0.3,1.3-0.5,2.7-0.8,4c0,0.1-0.4,0.2-0.6,0.2c-1.6,0-3.2,0-4.8,0
				c-4.9,0-9.8,0-14.7,0c-0.3,0-0.5,0-0.8,0c-0.2-0.4-0.1-0.6,0.4-0.7c1-0.2,1.5-0.7,1.6-1.8c0-0.3,0.1-0.6,0.1-0.9
				c0-7.2,0-14.5,0-21.7c0-0.5-0.1-1-0.2-1.5c-0.2-0.6-0.6-1.1-1.3-1.2c-0.3-0.1-0.7,0.1-0.6-0.4c0-0.2,0.5-0.3,0.7-0.3
				c6.1,0,12.2,0,18.3,0C291,4.4,291.5,4.4,292,4.4z"/>
		</g>
		<g>
			<path class="st0" d="M85.8,5c0-0.2,0-0.4,0-0.6c6.9,0,13.7,0,20.6,0c0.1,1.4,0.1,2.9,0.2,4.3c-0.1,0-0.1,0.1-0.2,0.1
				c-0.2-0.1-0.5-0.2-0.6-0.4c-1.1-2.4-3.1-3.4-5.6-3.5c-3.2-0.1-6.4,0-9.7,0C90.3,5,90,5,90,5.5c0,3.4,0,6.7,0,10.1
				c0,0.1,0,0.1,0.1,0.2c0.2,0,0.4,0,0.6,0c2.7,0,5.5,0,8.2,0c0.9,0,1.8-0.2,2.7-0.4c0.7-0.2,1.2-0.6,1.6-1.3
				c0.1-0.2,0.3-0.3,0.5-0.4c0.1,0,0.1,0.1,0.2,0.1c0,0.9,0,1.7,0,2.6c0,0.7,0,1.3,0,2c0,0.1-0.1,0.3-0.2,0.4
				c-0.2-0.1-0.4-0.1-0.5-0.3c-0.7-1.5-2.1-2-3.6-2.1c-3.1-0.1-6.2,0-9.3,0c-0.1,0-0.1,0-0.2,0.1c0,0.2,0,0.4,0,0.6
				c0,4.9,0,9.8,0,14.7c0,0.6,0.2,0.7,0.7,0.7c3.2,0,6.4,0,9.5,0c2.7,0,4.8-1.1,6.4-3.3c0.2-0.2,0.5-0.4,0.7-0.6
				c0.1,0.1,0.1,0.1,0.2,0.2c-0.2,1-0.4,2.1-0.6,3.1c-0.2,1.2-0.2,1.2-1.4,1.2c-6.3,0-12.6,0-18.9,0c-0.3,0-0.5,0-0.8,0
				c0-0.3,0-0.4,0-0.6c1.7-0.4,2.1-0.9,2.1-2.7c0-7.3,0-14.6,0-22c0-0.1,0-0.1,0-0.2C87.9,6,87.3,5.3,85.8,5z"/>
		</g>
		<g>
			<path class="st0" d="M61.6,4.6c-0.1,0.2-0.2,0.5-0.4,0.5c-1,0.1-1.4,0.8-1.6,1.6c-0.1,0.4-0.2,0.8-0.2,1.2c0,4.9,0,9.9,0,14.8
				c0,5.1,3.6,9,8.6,9.4c3,0.3,5.9-0.2,8.4-2c2.2-1.6,3.5-3.8,3.5-6.6c0-5.2,0-10.4,0.1-15.6c0-0.9-0.2-1.8-1-2.5
				c-0.3-0.3-0.7-0.5-1.1-0.5c-0.5-0.1-0.6-0.3-0.4-0.7c1.8,0,3.6,0,5.6,0c-0.2,0.3-0.3,0.6-0.4,0.6c-1.1,0.1-1.6,0.9-1.9,1.8
				c-0.2,0.5-0.2,1-0.2,1.5c0,4.8-0.1,9.7,0,14.5c0.2,5.2-3.2,8.5-7.3,9.6c-3.7,1-7.3,0.9-10.7-1c-3.5-1.9-5.4-4.9-5.4-9
				c0-4.8,0-9.7,0-14.5c0-0.6-0.2-1.3-0.4-1.9c-0.2-0.6-0.7-1-1.4-1.1c-0.1,0-0.2-0.2-0.4-0.3c0.1-0.1,0.2-0.3,0.4-0.3
				c2,0,4,0,5.9,0C61.5,4.5,61.6,4.6,61.6,4.6z"/>
		</g>
		<g>
			<path class="st0" d="M150,10.9c-0.6,0.2-0.8,0-1-0.4c-1.5-3.5-4.2-5.2-7.9-5.4c-1.5-0.1-3.1-0.2-4.6,0c-4.7,0.6-8,3.3-9.6,7.8
				c-1.6,4.7-1.5,9.3,0.8,13.8c2.1,4,5.6,5.9,10,6.1c2.3,0.1,4.6,0,6.7-1c2.1-0.9,3.7-2.3,4.6-4.5c0.2-0.4,0.3-0.7,0.9-0.5
				c0,0.8-0.1,1.7,0,2.5c0.2,1.3-0.5,1.9-1.7,2.3c-4.5,1.7-9.2,2.4-14,1.4c-6.5-1.4-10.6-6.6-10.8-13.4c-0.1-3.6,0.7-6.9,2.9-9.8
				c2.4-3.2,5.7-4.8,9.6-5.2c4.5-0.5,8.8,0.2,13,2c0.6,0.3,0.9,0.6,0.9,1.3C149.8,8.8,149.9,9.8,150,10.9z"/>
		</g>
		<g>
			<path class="st0" d="M323.5,33c-2.2,0-4.4,0-6.6,0c0-0.2,0-0.4,0-0.6c0.2,0,0.3,0,0.4-0.1c1.2-0.1,1.7-0.8,1.4-1.9
				c-0.2-0.8-0.6-1.6-1-2.4c-0.1-0.1-0.3-0.3-0.5-0.3c-2.3-0.1-4.5-0.9-6.6-1.7c-1.8-0.6-3.6-1.3-5.5-1.8c-1-0.2-2.1,0-3.1,0.1
				c-0.3,0-0.6,0.3-0.7,0.6c-0.6,1.4-1.2,2.8-1.7,4.2c-0.2,0.4-0.3,0.9-0.3,1.3c-0.1,1.1,0.5,1.7,1.6,1.8c0.4,0,0.6,0.2,0.5,0.7
				c-1.8,0-3.7,0-5.6,0c-0.1-0.3-0.2-0.6,0.3-0.7c1.2-0.1,1.8-0.9,2.3-1.9c0.6-1.4,1.2-2.9,1.8-4.3c2.8-6.9,5.7-13.9,8.5-20.8
				c0.1-0.2,0.1-0.3,0.2-0.5c0.1-0.2,0.3-0.4,0.4-0.4c0.2,0,0.4,0.2,0.5,0.4c0.6,1.3,1.1,2.5,1.7,3.8c3,7,6,14,9,21
				c0.3,0.7,0.7,1.4,1.2,1.9c0.3,0.4,0.8,0.6,1.3,0.7C323.5,32.4,323.7,32.5,323.5,33z M301.8,23.7c2.6-0.6,4.8,0.2,7,1
				c1.6,0.6,3.2,1.2,4.8,1.7c1.2,0.4,2.4,0.5,3.6,0.8c0-0.1,0.1-0.1,0.1-0.2c-2.8-6.6-5.7-13.2-8.5-19.8c-0.1,0-0.1,0-0.2,0
				C306.3,12.7,304.1,18.1,301.8,23.7z"/>
		</g>
		<g>
			<path class="st0" d="M180.3,33c-2.2,0-4.4,0-6.6,0c0-0.2,0-0.4,0-0.6c0.2,0,0.3,0,0.4-0.1c1.2-0.1,1.7-0.8,1.4-1.9
				c-0.2-0.8-0.6-1.6-1-2.4c-0.1-0.1-0.3-0.3-0.5-0.3c-2.3-0.1-4.5-0.9-6.6-1.7c-1.8-0.6-3.6-1.3-5.5-1.8c-1-0.2-2.1,0-3.1,0.1
				c-0.2,0-0.5,0.3-0.6,0.5c-0.6,1.5-1.2,2.9-1.8,4.4c-0.2,0.4-0.2,0.8-0.3,1.2c-0.1,1.1,0.5,1.7,1.6,1.8c0.4,0,0.6,0.2,0.5,0.7
				c-1.8,0-3.7,0-5.8,0c0.2-0.3,0.3-0.6,0.4-0.6c1.3-0.2,2-1.1,2.5-2.2c0.7-1.6,1.3-3.2,2-4.8c2.8-6.8,5.5-13.5,8.3-20.3
				c0.1-0.2,0.3-0.4,0.5-0.6c0.2,0.2,0.5,0.3,0.6,0.6c3.5,8.2,7.1,16.4,10.6,24.6c0.3,0.7,0.7,1.3,1.2,1.9c0.3,0.4,0.8,0.6,1.3,0.8
				C180.2,32.4,180.4,32.5,180.3,33z M174,27.2c0-0.1,0.1-0.1,0.1-0.2c-2.8-6.6-5.7-13.2-8.6-20c-2.3,5.7-4.6,11.1-6.9,16.8
				c2.6-0.6,4.8,0.2,7,1c1.6,0.6,3.2,1.2,4.8,1.7C171.6,26.8,172.8,27,174,27.2z"/>
		</g>
		<g>
			<path class="st0" d="M53.8,28.5c-0.3,1.4-0.6,2.8-0.9,4.2c0,0.1-0.3,0.2-0.4,0.4c0,0-0.1,0-0.2,0c-6.6,0-13.2,0-19.8,0
				c-0.1,0-0.3,0-0.4,0c-0.1-0.3-0.2-0.6,0.3-0.7c1-0.1,1.5-0.8,1.7-1.7c0.1-0.4,0.1-0.7,0.1-1.1c0-7.2,0-14.4,0-21.6
				c0-0.1,0-0.3,0-0.4C34.1,6,33.5,5.3,32,5c0-0.2,0-0.4,0-0.6c2,0,3.9,0,5.8,0c0.2,0,0.3,0,0.5,0c0,0.2,0,0.4,0,0.6
				c-1.6,0.4-1.9,0.8-2,2.4c0,0.2,0,0.4,0,0.7c0,7.8,0,15.7,0,23.5c0,0.8,0,0.8,0.9,0.8c3.1,0,6.3,0,9.4,0c2.9,0,4.9-1.3,6.2-3.8
				C53,28.2,53,28.2,53.8,28.5z"/>
		</g>
		<g>
			<path class="st0" d="M210.7,5c0.2-0.2,0.3-0.4,0.4-0.6c0.1-0.1,0.2,0,0.3,0c1.9,0,3.8,0,5.7,0c0.2,0.4,0.1,0.7-0.4,0.7
				c-1,0.1-1.4,0.8-1.6,1.7c-0.1,0.4-0.1,0.7-0.1,1.1c0,7.2,0,14.3,0,21.5c0,0.6,0.1,1.1,0.2,1.7c0.2,0.6,0.7,1.1,1.4,1.2
				c0.5,0,0.5,0.3,0.4,0.7c-2.1,0-4.2,0-6.3,0c-0.2-0.4-0.1-0.6,0.4-0.7c1.1-0.2,1.5-0.7,1.6-1.8c0-0.4,0.1-0.8,0.1-1.2
				c0-7.1,0-14.1,0-21.2c0-0.3,0-0.5,0-0.8C212.8,5.8,212.3,5.3,210.7,5z"/>
		</g>
	</g>
	<g>
		<g>
			<path class="st1" d="M114.2,57.6c0,0.1,0,0.2-0.1,0.2c-0.7,0.1-1.3-0.1-1.8-0.7c-0.8-0.9-1.5-1.7-2.3-2.6
				c-0.2-0.2-0.3-0.3-0.6-0.3c-0.8,0-1.7,0-2.5,0c-0.2,0-0.2,0-0.2,0.2c0,0.7,0,1.3,0,2c0,0,0,0,0,0.1c0,0.6,0.2,0.9,0.8,1
				c0,0.1,0,0.1,0,0.2c-0.8,0-1.7,0-2.5,0c0-0.1,0-0.2,0-0.2c0.6-0.1,0.8-0.4,0.8-1.1c0-2,0-4,0-6c0-0.8,0-1.6,0-2.5
				c0-0.2,0-0.4-0.1-0.6c-0.1-0.3-0.3-0.5-0.7-0.5c0,0,0,0-0.1,0c0,0,0,0,0,0c0-0.1,0-0.1,0-0.2c0.1,0,0.1,0,0.2,0
				c1.6,0,3.2,0,4.9,0c1.1,0,2.1,0.4,2.8,1.3c1.7,2.2,0.7,5.3-1.9,6c-0.1,0-0.1,0-0.2,0.1c0,0,0,0.1,0.1,0.1
				c0.8,0.9,1.5,1.7,2.3,2.6c0.2,0.2,0.3,0.3,0.5,0.5C113.8,57.4,114,57.6,114.2,57.6z M106.7,46.9c0,0.1,0,0.2,0,0.3
				c0,1.7,0,3.5,0,5.2c0,0.5,0,1,0,1.5c0,0.1,0,0.2,0.1,0.2c1,0,2,0,2.9,0c1.2-0.1,2.1-0.7,2.6-1.8c0.6-1.3,0.5-2.7-0.2-3.9
				c-0.5-0.9-1.2-1.4-2.3-1.3c-1,0-2,0-3,0C106.9,46.9,106.8,46.9,106.7,46.9z"/>
			<path class="st1" d="M113.9,57.9c-0.6,0-1.2-0.2-1.6-0.7l-0.6-0.7c-0.5-0.6-1.1-1.2-1.6-1.9c-0.2-0.2-0.3-0.2-0.5-0.2
				c-0.8,0-1.6,0-2.3,0l-0.2,0c0,0-0.1,0-0.1,0c0,0,0,0,0,0.1c0,0.5,0,1,0,1.5l0,0.5l0,0.1c0,0.6,0.2,0.8,0.7,0.9l0.1,0v0.5h-2.8
				v-0.5l0.1,0c0.6-0.1,0.7-0.3,0.7-0.9c0-1.4,0-2.9,0-4.3l0-2.3c0-0.6,0-1.2,0-1.8c0-0.2,0-0.4-0.1-0.5c-0.1-0.3-0.3-0.4-0.5-0.4
				c0,0-0.1,0-0.1,0l-0.1,0l-0.1,0l0-0.1v-0.3l0.2,0c0,0,0.1,0,0.1,0h1c1.3,0,2.6,0,3.9,0c1.2,0,2.2,0.5,2.9,1.4
				c0.8,1.1,1.1,2.4,0.7,3.7c-0.4,1.3-1.4,2.2-2.7,2.6c0,0,0,0,0,0l0.4,0.4c0.6,0.7,1.2,1.4,1.8,2.1c0.1,0.1,0.2,0.2,0.4,0.4
				l0.1,0.1c0.2,0.2,0.4,0.3,0.6,0.3l0.1,0l0,0.1c0,0,0.1,0.1,0,0.2c-0.1,0.1-0.1,0.1-0.2,0.1C114.1,57.9,114,57.9,113.9,57.9z
				 M109.8,54.1c0.2,0,0.3,0.1,0.4,0.3c0.5,0.6,1.1,1.3,1.6,1.9l0.6,0.7c0.4,0.4,0.8,0.6,1.4,0.6c-0.2-0.1-0.3-0.2-0.4-0.3l-0.1-0.1
				c-0.1-0.1-0.3-0.2-0.4-0.4c-0.6-0.7-1.2-1.4-1.8-2.1l-0.4-0.5c0,0,0-0.1-0.1-0.1l-0.1-0.2l0.2-0.1c0,0,0.1,0,0.1,0
				c1.2-0.4,2.1-1.2,2.5-2.4c0.4-1.2,0.2-2.4-0.6-3.4c-0.5-0.6-1.1-1-1.8-1.2c0.6,0.2,1.1,0.6,1.4,1.3c0.7,1.3,0.8,2.7,0.2,4.1
				C112,53.4,111.1,54,109.8,54.1C109.8,54.1,109.8,54.1,109.8,54.1z M105.2,57.6h2.2c-0.6-0.1-0.8-0.5-0.8-1.1l0-0.1l0-0.5
				c0-0.5,0-1,0-1.5c0-0.1,0-0.2,0.1-0.3c0,0,0,0,0.1,0c0,0,0,0-0.1,0c-0.1-0.1-0.1-0.2-0.1-0.2c0-0.4,0-0.7,0-1.1v-5.9
				c-0.1,0-0.3,0-0.4,0h-0.9c0.3,0.1,0.5,0.3,0.6,0.6c0,0.2,0.1,0.4,0.1,0.6c0,0.6,0,1.2,0,1.8l0,0.7l0,1.6c0,1.4,0,2.9,0,4.3
				C106,57.1,105.8,57.4,105.2,57.6z M107,53.9c0.3,0,0.6,0,0.8,0c0.6,0,1.3,0,2,0c1.2-0.1,2-0.7,2.5-1.7c0.6-1.3,0.5-2.6-0.2-3.8
				c-0.4-0.8-1.1-1.3-2.1-1.3c0,0,0,0,0,0c-0.7,0-1.4,0-2.1,0l-1,0l0,5.7c0,0.4,0,0.7,0,1.1c0,0,0,0,0,0
				C106.9,53.9,106.9,53.9,107,53.9z"/>
		</g>
		<g>
			<path class="st1" d="M189.7,46.9c0-0.1,0-0.1,0-0.2c0.1,0,0.1,0,0.2,0c1.6,0,3.3,0,4.9,0c1.2,0,2.2,0.4,2.9,1.4
				c0.8,1.2,0.9,2.4,0.4,3.7c-0.4,1.1-1.3,1.8-2.4,2.2c-0.1,0-0.2,0-0.2,0.1c0,0,0,0.1,0.1,0.1c0.7,0.9,1.5,1.7,2.2,2.6
				c0.1,0.2,0.3,0.3,0.5,0.5c0.2,0.2,0.4,0.4,0.7,0.4c0,0.1,0,0.2-0.1,0.2c-0.7,0.1-1.3-0.1-1.8-0.7c-0.8-0.9-1.5-1.7-2.3-2.6
				c-0.1-0.2-0.3-0.2-0.5-0.2c-0.9,0-1.7,0-2.6,0c-0.1,0-0.2,0-0.2,0.2c0,0.7,0,1.4,0,2.1c0,0.1,0,0.2,0,0.3
				c0.1,0.5,0.3,0.6,0.8,0.7c0,0.1,0,0.2,0,0.2c-0.8,0-1.7,0-2.5,0c0-0.1,0-0.2,0-0.2c0.6-0.1,0.8-0.3,0.8-1c0-0.1,0-0.1,0-0.2
				c0-2.8,0-5.5,0-8.3c0-0.1,0-0.2,0-0.3C190.5,47.2,190.3,47,189.7,46.9z M191.4,54c0.1,0,0.1,0,0.1,0c0.9,0,1.8,0,2.8,0
				c1.2,0,2.2-0.6,2.7-1.7c0.7-1.4,0.6-2.9-0.2-4.2c-0.5-0.8-1.2-1.2-2.1-1.2c-1,0-2.1,0-3.1,0c-0.1,0-0.1,0-0.2,0
				C191.4,49.3,191.4,51.6,191.4,54z"/>
			<path class="st1" d="M198.5,57.9c-0.6,0-1.2-0.2-1.6-0.7l-0.6-0.7c-0.6-0.6-1.1-1.3-1.7-1.9c-0.1-0.1-0.2-0.2-0.4-0.2
				c0,0,0,0,0,0c-0.8,0-1.6,0-2.4,0l-0.2,0c0,0,0,0-0.1,0c0,0,0,0,0,0c0,0.4,0,0.8,0,1.3c0,0.3,0,0.5,0,0.8c0,0.1,0,0.2,0,0.3
				c0.1,0.4,0.2,0.5,0.7,0.6l0.1,0v0.5h-2.8v-0.5l0.1,0c0.5-0.1,0.7-0.3,0.7-0.8c0-0.1,0-0.1,0-0.2l0,0c0-2.8,0-5.5,0-8.3
				c0-0.1,0-0.2,0-0.3c0-0.5-0.2-0.7-0.7-0.8l-0.1,0v-0.5l0.2,0c0,0,0.1,0,0.1,0l1.5,0c1.1,0,2.3,0,3.4,0c1.3,0,2.3,0.5,3,1.5
				c0.8,1.2,1,2.5,0.5,3.9c-0.4,1.1-1.2,1.8-2.5,2.2l-0.1,0l0.4,0.5c0.6,0.7,1.2,1.4,1.8,2c0.1,0.1,0.3,0.3,0.4,0.4l0.1,0.1
				c0.2,0.2,0.4,0.3,0.6,0.3l0.1,0l0,0.1c0,0,0.1,0.1,0,0.2c0,0.1-0.1,0.1-0.2,0.1C198.7,57.9,198.6,57.9,198.5,57.9z M194.5,54.1
				c0.1,0,0.2,0.1,0.3,0.2c0.5,0.6,1.1,1.3,1.7,1.9l0.6,0.7c0.4,0.4,0.8,0.6,1.4,0.6h0c-0.2-0.1-0.3-0.2-0.4-0.3l-0.1-0.1
				c-0.1-0.1-0.3-0.3-0.4-0.4c-0.6-0.7-1.2-1.4-1.8-2l-0.5-0.5c0,0,0,0-0.1-0.1l-0.1-0.2l0.4-0.1c1.2-0.4,2-1.1,2.3-2.1
				c0.5-1.3,0.3-2.5-0.4-3.6c-0.5-0.7-1.1-1.1-1.9-1.3c0.5,0.2,1,0.6,1.3,1.1c0.8,1.4,0.9,2.9,0.2,4.3
				C196.6,53.4,195.7,54,194.5,54.1z M189.9,57.6h2.1c-0.4-0.1-0.6-0.3-0.7-0.8c0-0.1,0-0.2,0-0.3c0-0.3,0-0.5,0-0.8
				c0-0.4,0-0.8,0-1.3c0-0.1,0-0.2,0.1-0.2c0,0,0,0,0,0l-0.1,0v-7.3l-1.4,0c0.5,0.1,0.7,0.4,0.8,1c0,0.1,0,0.2,0,0.3
				c0,2.8,0,5.5,0,8.3v0c0,0.1,0,0.1,0,0.2C190.6,57.2,190.4,57.4,189.9,57.6z M191.6,53.9c0.3,0,0.5,0,0.8,0c0.6,0,1.3,0,1.9,0
				c1.2,0,2.1-0.6,2.6-1.7c0.6-1.4,0.6-2.8-0.2-4.1c-0.4-0.7-1.1-1.1-2-1.1c0,0,0,0,0,0l-3.1,0c0,0,0,0,0,0L191.6,53.9
				C191.6,53.9,191.6,53.9,191.6,53.9z"/>
		</g>
		<g>
			<path class="st1" d="M125.7,52.1c0-1,0.2-1.9,0.7-2.8c0.6-1.2,1.5-2.1,2.8-2.5c1.3-0.4,2.6-0.5,3.9-0.1c1.6,0.5,2.7,1.6,3.3,3.1
				c0.6,1.6,0.5,3.2-0.1,4.7c-0.7,1.7-2.1,2.7-3.9,3c-1.2,0.2-2.4,0.1-3.5-0.4c-1.6-0.7-2.6-2-2.9-3.8
				C125.8,53.1,125.7,52.6,125.7,52.1z M135.8,52.3c0-0.9-0.1-1.7-0.4-2.4c-0.6-1.8-2-3.1-4.1-3.1c-1.9,0-3.3,0.8-4.1,2.5
				c-0.9,1.8-0.9,3.7-0.1,5.6c0.7,1.7,2.1,2.7,4,2.7c1.8,0,3.1-0.8,3.9-2.3C135.6,54.3,135.8,53.2,135.8,52.3z"/>
			<path class="st1" d="M131.1,57.9c-0.9,0-1.7-0.2-2.4-0.5c-1.6-0.7-2.6-2-3-3.9c-0.1-0.3-0.1-0.6-0.1-1c0-0.1,0-0.3,0-0.4l0,0l0,0
				c0-1.1,0.3-2,0.7-2.8c0.6-1.3,1.6-2.1,2.9-2.6c1.3-0.5,2.7-0.5,4-0.1c1.7,0.5,2.8,1.6,3.4,3.2c0.6,1.6,0.5,3.3-0.1,4.8
				c-0.7,1.7-2.1,2.8-4,3.1C131.9,57.9,131.5,57.9,131.1,57.9z M125.8,52.1c0,0.1,0,0.3,0,0.4c0,0.3,0.1,0.6,0.1,0.9
				c0.4,1.8,1.3,3,2.8,3.7c0.3,0.2,0.7,0.3,1.1,0.3c-1.3-0.3-2.3-1.2-2.9-2.6c-0.8-1.9-0.8-3.9,0.1-5.7c0.6-1.2,1.4-1.9,2.5-2.3
				c-0.2,0-0.3,0.1-0.5,0.1c-1.2,0.4-2.2,1.2-2.7,2.4C126.1,50.2,125.9,51.1,125.8,52.1z M132.7,46.9c1.3,0.4,2.3,1.5,2.9,3
				c0.2,0.7,0.4,1.5,0.4,2.4v0c0,1.1-0.3,2.2-0.7,3c-0.6,1.1-1.4,1.8-2.4,2.1c1.6-0.4,2.7-1.3,3.3-2.8c0.6-1.5,0.7-3.1,0.1-4.6
				c-0.5-1.6-1.6-2.6-3.2-3.1C132.9,46.9,132.8,46.9,132.7,46.9z M131.2,46.9c-1.8,0-3.1,0.8-3.9,2.4c-0.8,1.8-0.9,3.6-0.1,5.5
				c0.7,1.7,2,2.6,3.9,2.6c0,0,0.1,0,0.1,0c1.7,0,2.9-0.8,3.7-2.2c0.4-0.8,0.7-1.8,0.7-2.9c0-0.9-0.1-1.7-0.3-2.4
				C134.6,48,133.2,46.9,131.2,46.9C131.3,46.9,131.3,46.9,131.2,46.9z"/>
		</g>
		<g>
			<path class="st1" d="M86.1,54.2c0,0.8,0,1.6,0,2.4c0,0.1,0,0.3,0.1,0.4c0.1,0.3,0.3,0.4,0.7,0.5c0,0.1,0,0.1,0,0.2
				c-0.8,0-1.7,0-2.5,0c0-0.1,0-0.2,0-0.2c0.6-0.1,0.8-0.4,0.8-1c0-2.9,0-5.8,0-8.7c0-0.1,0-0.2,0-0.3c-0.1-0.4-0.3-0.6-0.8-0.7
				c0-0.1,0-0.1,0-0.2c0.1,0,0.1,0,0.2,0c1.6,0,3.2,0,4.9,0c1.1,0,2.1,0.4,2.8,1.3c0.9,1.2,1.1,3.3,0.1,4.7c-0.7,1-1.7,1.5-2.9,1.6
				c-0.8,0.1-1.5,0-2.3,0C86.8,54.2,86.5,54.2,86.1,54.2z M86.1,54C86.2,54,86.2,54,86.1,54c1,0,2,0,2.9,0c1.4-0.1,2.4-0.8,2.9-2.1
				c0.4-1.2,0.4-2.4-0.2-3.6c-0.5-1-1.3-1.5-2.4-1.5c-1,0-2,0-3,0c-0.1,0-0.1,0-0.2,0C86.1,49.3,86.1,51.6,86.1,54z"/>
			<path class="st1" d="M87.1,57.9h-2.8v-0.5l0.1,0c0.5-0.1,0.7-0.3,0.7-0.8c0-2.3,0-4.6,0-6.9l0-1.8c0-0.1,0-0.2,0-0.2
				c-0.1-0.4-0.2-0.5-0.7-0.6l-0.1,0v-0.5l0.2,0c0,0,0.1,0,0.1,0c1.6,0,3.2,0,4.9,0c1.2,0,2.2,0.4,2.9,1.3c0.9,1.2,1.2,3.4,0.1,4.8
				c-0.7,1-1.7,1.5-3,1.6c-0.5,0-1.1,0-1.6,0c-0.2,0-0.5,0-0.7,0c-0.2,0-0.5,0-0.7,0h-0.2l0,0.5c0,0.6,0,1.2,0,1.8
				c0,0.1,0,0.2,0.1,0.3c0.1,0.3,0.2,0.3,0.6,0.4l0.1,0V57.9z M84.7,57.6h2.1c-0.3-0.1-0.5-0.2-0.6-0.5c0-0.1-0.1-0.3-0.1-0.4
				c0-0.6,0-1.2,0-1.8l0-0.7h0l0-0.1v-7.2c-0.5,0-1,0-1.4,0c0.5,0.1,0.7,0.3,0.8,0.8c0,0.1,0,0.2,0,0.3l0,1.8c0,2.3,0,4.6,0,6.9
				C85.4,57.1,85.2,57.4,84.7,57.6z M90.4,46.9c0.6,0.2,1.1,0.7,1.4,1.4c0.6,1.2,0.7,2.5,0.2,3.7c-0.4,1-1,1.7-2,2
				c0.9-0.2,1.7-0.7,2.2-1.4c1-1.3,0.7-3.5-0.1-4.5C91.7,47.4,91.1,47.1,90.4,46.9z M86.3,53.9c0.3,0,0.5,0,0.8,0c0.6,0,1.3,0,2,0
				c1.4-0.1,2.3-0.7,2.7-2c0.4-1.2,0.4-2.4-0.2-3.5c-0.4-0.9-1.2-1.4-2.2-1.4c0,0,0,0-0.1,0c-0.7,0-1.4,0-2,0c-0.3,0-0.6,0-0.9,0
				h-0.1V53.9z"/>
		</g>
		<g>
			<path class="st1" d="M151.2,57.5c0,0.1,0,0.1,0,0.2c-0.8,0-1.7,0-2.5,0c0-0.1,0-0.1,0-0.2c0.6-0.1,0.8-0.4,0.8-1
				c0-2.8,0-5.7,0-8.5c0-0.2-0.1-0.5-0.2-0.7c-0.1-0.2-0.3-0.3-0.5-0.3c-0.2,0-0.2,0-0.2-0.3c0,0,0.1,0,0.1,0c1.7,0,3.4,0,5.1,0
				c1.2,0,2.1,0.5,2.8,1.5c1.3,2,0.9,5.3-2.6,6c-0.4,0.1-0.7,0.1-1.1,0.1c-0.8,0-1.6,0-2.4,0c-0.2,0-0.2,0-0.2,0.2c0,0.7,0,1.4,0,2
				c0,0.1,0,0.1,0,0.2C150.4,57.2,150.6,57.4,151.2,57.5z M150.3,50.4c0,1.1,0,2.3,0,3.4c0,0.1,0,0.2,0.2,0.2c0.9,0,1.8,0,2.7,0
				c1.4,0,2.5-0.8,2.9-2.1c0.1-0.4,0.2-0.8,0.2-1.2c0.1-0.9-0.1-1.8-0.5-2.6c-0.5-0.8-1.2-1.3-2.2-1.3c-1,0-2,0-3,0
				c-0.2,0-0.2,0-0.2,0.2C150.3,48.2,150.3,49.3,150.3,50.4z"/>
			<path class="st1" d="M151.3,57.8h-2.8v-0.5l0.1,0c0.6-0.1,0.7-0.3,0.7-0.9c0-2.8,0-5.7,0-8.5c0-0.2-0.1-0.5-0.2-0.6
				c-0.1-0.2-0.2-0.2-0.4-0.2c-0.1,0-0.2,0-0.3-0.1c-0.1-0.1,0-0.2,0-0.3l0-0.1l0.1,0c0,0,0.1,0,0.1,0c0.5,0,1,0,1.5,0
				c1.2,0,2.4,0,3.6,0c1.2,0,2.2,0.5,2.9,1.5c0.8,1.2,0.9,2.7,0.4,3.9c-0.4,0.8-1.2,1.9-3,2.2c-0.4,0.1-0.8,0.1-1.1,0.1
				c-0.8,0-1.7,0-2.4,0c0,0,0,0,0,0c0,0-0.1,0-0.1,0c0,0,0,0,0,0.1c0,0.5,0,0.9,0,1.4l0,0.6c0,0.1,0,0.1,0,0.2
				c0.1,0.5,0.2,0.6,0.7,0.7l0.1,0V57.8z M148.9,57.6h2.1c-0.5-0.1-0.7-0.4-0.7-0.9c0-0.1,0-0.1,0-0.2v-0.6c0-0.5,0-0.9,0-1.4
				c0-0.1,0-0.2,0.1-0.3c0,0,0,0,0.1,0c0,0,0,0-0.1,0c-0.1-0.1-0.1-0.2-0.1-0.2c0-0.9,0-1.8,0-2.6l0-1.6c0-0.8,0-1.7,0-2.5
				c0-0.1,0-0.2,0.1-0.3c0,0,0,0,0,0c0,0,0,0-0.1,0c-0.5,0-0.9,0-1.4,0c0.3,0,0.5,0.2,0.6,0.4c0.1,0.2,0.2,0.4,0.2,0.7
				c0,2.8,0,5.7,0,8.5C149.6,57.1,149.4,57.4,148.9,57.6z M154.5,46.9c0.6,0.2,1.1,0.6,1.4,1.2c0.4,0.8,0.6,1.6,0.6,2.6
				c0,0.4-0.1,0.8-0.2,1.2c-0.3,1-1,1.7-1.9,2c1.5-0.4,2.2-1.3,2.5-2c0.5-1.2,0.4-2.6-0.4-3.7C156,47.5,155.4,47,154.5,46.9z
				 M150.9,53.9c0.4,0,0.8,0,1.3,0c0.4,0,0.7,0,1.1,0c1.3,0,2.4-0.8,2.8-2c0.1-0.3,0.2-0.7,0.2-1.1c0.1-0.9-0.1-1.8-0.5-2.5
				c-0.5-0.8-1.2-1.2-2.1-1.2c0,0,0,0,0,0c-1,0-2,0-3,0c-0.1,0-0.1,0-0.1,0c0,0,0,0,0,0.1c0,0.8,0,1.7,0,2.5l0,1.6
				c0,0.9,0,1.8,0,2.6c0,0,0,0,0,0.1c0,0,0,0,0,0C150.6,53.9,150.7,53.9,150.9,53.9z"/>
		</g>
		<g>
			<path class="st1" d="M246.7,46.9c0-0.1,0-0.2,0-0.2c2.7,0,5.3,0,8,0c0,0.6,0.1,1.1,0.1,1.7c-0.1,0-0.2,0-0.3-0.1
				c-0.4-0.8-1-1.3-1.9-1.3c-0.5,0-1,0-1.4,0c-0.9,0-1.7,0-2.6,0c-0.2,0-0.2,0-0.2,0.2c0,1.3,0,2.5,0,3.8c0,0.2,0.1,0.2,0.2,0.2
				c1.1,0,2.2,0,3.2,0c0.3,0,0.7-0.1,1-0.2c0.3-0.1,0.5-0.3,0.6-0.5c0,0,0.1-0.1,0.2-0.1c0,0,0.1,0.1,0.1,0.1c0,0.6,0,1.2,0,1.8
				c-0.1,0-0.2,0.1-0.3-0.1c-0.1-0.3-0.4-0.6-0.7-0.7c-0.3-0.1-0.5-0.2-0.8-0.2c-1.1,0-2.3,0-3.4,0c-0.1,0-0.2,0-0.2,0.1
				c0,2,0,4,0,6c0,0,0,0,0,0.1c0.1,0,0.1,0,0.2,0c1.3,0,2.5,0,3.8,0c1,0,1.8-0.4,2.4-1.2c0.1-0.1,0.1-0.3,0.4-0.2
				c-0.1,0.4-0.1,0.7-0.2,1.1c0,0.2,0,0.4-0.1,0.5c-0.1,0.1-0.3,0-0.5,0c-2.4,0-4.9,0-7.3,0c-0.1,0-0.1,0-0.2,0c0-0.1,0-0.2,0-0.3
				c0.1,0,0.1,0,0.2,0c0.3-0.1,0.5-0.2,0.5-0.5c0-0.2,0.1-0.4,0.1-0.5c0-2.8,0-5.6,0-8.4c0-0.1,0-0.2,0-0.3
				C247.5,47.2,247.3,47,246.7,46.9z"/>
			<path class="st1" d="M254.6,57.9c-0.1,0-0.1,0-0.2,0c0,0-0.1,0-0.1,0h-7.6v-0.5l0.1,0c0.1,0,0.1,0,0.2,0c0.2,0,0.4-0.2,0.4-0.4
				c0-0.2,0.1-0.3,0.1-0.5c0-2.8,0-5.6,0-8.4c0-0.1,0-0.2,0-0.3c0-0.4-0.2-0.6-0.7-0.7l-0.1,0v-0.5h8.2l0.1,1.9l-0.1,0
				c-0.1,0-0.3,0.1-0.4-0.2c-0.3-0.7-0.9-1.2-1.8-1.3c-0.3,0-0.7,0-1,0c-0.1,0-0.2,0-0.4,0c-0.3,0-0.7,0-1.1,0c-0.5,0-1,0-1.5,0
				c0,0-0.1,0-0.1,0c0,0,0,0,0,0.1c0,1.3,0,2.5,0,3.8c0,0,0,0.1,0,0.1c0,0,0,0,0.1,0c0,0,0,0,0,0c0.4,0,0.8,0,1.2,0c0.7,0,1.4,0,2,0
				c0.3,0,0.7-0.1,1-0.2c0.2-0.1,0.4-0.2,0.5-0.5c0-0.1,0.1-0.1,0.3-0.2l0.1,0l0.1,0.1c0,0,0.1,0.1,0.1,0.2c0,0.5,0,1,0,1.5v0.5
				l-0.1,0c-0.1,0-0.3,0.1-0.4-0.2c-0.1-0.3-0.3-0.5-0.6-0.6c-0.3-0.1-0.5-0.1-0.8-0.1c-0.8,0-1.5,0-2.3,0c-0.4,0-0.7,0-1.1,0
				c0,0,0,0,0,0c0,0,0,0,0,0c0,1.5,0,3,0,4.5l0,1.5c0,0,0,0,0.1,0l0.9,0c0.9,0,1.9,0,2.8,0c1,0,1.8-0.4,2.3-1.2l0,0
				c0.1-0.1,0.2-0.3,0.5-0.2l0.1,0l-0.1,0.5c-0.1,0.3-0.1,0.5-0.2,0.8c0,0,0,0.1,0,0.1c0,0.2,0,0.3-0.2,0.4
				C254.8,57.9,254.7,57.9,254.6,57.9z M254.3,57.6c0.1,0,0.1,0,0.2,0c0.1,0,0.2,0,0.3,0c0,0,0.1-0.2,0.1-0.3c0-0.1,0-0.1,0-0.2
				c0.1-0.3,0.1-0.5,0.2-0.8l0-0.2c0,0,0,0-0.1,0.1c0,0,0,0,0,0.1c-0.5,0.7-1.1,1.1-1.9,1.3L254.3,57.6
				C254.3,57.6,254.3,57.6,254.3,57.6z M246.9,57.6l1.4,0l0-0.1c0-0.1,0-0.1,0-0.1v-1.5c0-1.5,0-3,0-4.5c0-0.1,0-0.2,0.1-0.2
				c0,0,0,0,0.1,0c0,0,0,0-0.1,0c-0.1-0.1-0.1-0.2-0.1-0.3c0-1.3,0-2.5,0-3.8c0-0.1,0-0.2,0.1-0.3c0,0,0,0,0,0h-1.4
				c0.5,0.1,0.7,0.4,0.7,0.9c0,0.1,0,0.2,0,0.3c0,2.8,0,5.6,0,8.4c0,0.2,0,0.4-0.1,0.6c-0.1,0.3-0.3,0.5-0.6,0.6
				C247,57.6,246.9,57.6,246.9,57.6L246.9,57.6z M252.2,51.2c0.2,0,0.4,0.1,0.6,0.1c0.4,0.1,0.7,0.4,0.8,0.7c0,0,0,0,0,0l0-0.3
				c0-0.5,0-0.9,0-1.4c0,0,0,0,0,0c-0.1,0.3-0.4,0.5-0.7,0.6C252.7,51.1,252.4,51.1,252.2,51.2z M252.9,46.8
				c0.8,0.2,1.4,0.6,1.7,1.4c0,0,0,0,0,0l-0.1-1.4H252.9z"/>
		</g>
		<g>
			<path class="st1" d="M177.6,56.1c-0.1,0.4-0.2,0.8-0.2,1.2c-0.1,0.4-0.1,0.4-0.5,0.4c-2.5,0-4.9,0-7.4,0c-0.1,0-0.1,0-0.2,0
				c0-0.1,0-0.2,0-0.2c0.7-0.2,0.8-0.4,0.8-1c0-2.8,0-5.7,0-8.5c0-0.1,0-0.1,0-0.2c0-0.5-0.3-0.8-0.8-0.8c0-0.1,0-0.1,0-0.2
				c2.7,0,5.3,0,8,0c0,0.6,0,1.1,0.1,1.7c-0.1,0-0.2,0-0.3-0.1c-0.4-0.8-1-1.3-1.9-1.3c-0.5-0.1-1,0-1.5,0c-0.8,0-1.7,0-2.5,0
				c-0.2,0-0.2,0-0.2,0.2c0,1.3,0,2.5,0,3.8c0,0.1,0,0.2,0.2,0.2c1.1,0,2.2,0,3.3,0c0.4,0,0.7-0.1,1.1-0.2c0.2-0.1,0.4-0.2,0.5-0.5
				c0.1-0.1,0.1-0.1,0.3-0.1c0,0.6,0,1.3,0,1.9c-0.1,0-0.2,0-0.3-0.1c-0.1-0.3-0.4-0.5-0.7-0.7c-0.2-0.1-0.5-0.1-0.7-0.2
				c-1.2,0-2.3,0-3.5,0c0,0,0,0-0.1,0c0,2.1,0,4.1,0,6.2c0.1,0,0.1,0,0.2,0c1.2,0,2.5,0,3.7,0c1,0,1.9-0.4,2.5-1.3
				C177.3,56.2,177.4,56,177.6,56.1z"/>
			<path class="st1" d="M176.9,57.9L176.9,57.9h-7.8v-0.5l0.1,0c0.6-0.2,0.7-0.3,0.7-0.9c0-2.4,0-4.8,0-7.3V48c0-0.1,0-0.1,0-0.2
				c0-0.5-0.2-0.7-0.7-0.7l-0.1,0v-0.5h8.2l0.1,1.9l-0.1,0c-0.1,0-0.3,0.1-0.4-0.2c-0.3-0.7-0.9-1.2-1.8-1.3c-0.4,0-0.7,0-1.1,0
				c-0.1,0-0.3,0-0.4,0c-0.3,0-0.7,0-1,0c-0.5,0-1,0-1.5,0c0,0-0.1,0-0.1,0c0,0,0,0,0,0.1c0,1.3,0,2.5,0,3.8c0,0,0,0,0,0.1
				c0,0,0,0,0.1,0c0.4,0,0.8,0,1.2,0c0.7,0,1.4,0,2.1,0c0.3,0,0.7-0.1,1-0.2c0.2-0.1,0.3-0.2,0.4-0.4c0.1-0.2,0.2-0.2,0.4-0.2l0.1,0
				l0,0.1v2l-0.1,0c-0.1,0-0.3,0.1-0.4-0.2c-0.1-0.3-0.3-0.5-0.6-0.6c-0.3-0.1-0.5-0.1-0.7-0.1c-0.9,0-1.7,0-2.6,0l-0.9,0v6
				c0,0,0,0,0.1,0h3.7c1,0,1.8-0.4,2.3-1.2l0,0c0.1-0.1,0.2-0.3,0.5-0.2l0.1,0l-0.1,0.3c-0.1,0.3-0.1,0.7-0.2,1
				C177.4,57.8,177.4,57.9,176.9,57.9z M175.4,57.6h1.4c0.3,0,0.3,0,0.4-0.3c0.1-0.3,0.1-0.7,0.2-1l0,0c0,0,0,0-0.1,0.1
				c0,0,0,0,0,0.1C176.9,57,176.2,57.5,175.4,57.6z M169.4,57.6h1.4v-6.4l0.1,0c0,0,0,0,0,0c-0.1-0.1-0.1-0.2-0.1-0.2
				c0-1.3,0-2.5,0-3.8c0-0.1,0-0.2,0.1-0.3c0,0,0,0,0,0h-1.4c0.5,0.1,0.7,0.4,0.7,0.9c0,0.1,0,0.1,0,0.2l0,1.2c0,2.4,0,4.8,0,7.3
				C170.2,57.2,170,57.4,169.4,57.6L169.4,57.6z M174.7,51.2c0.2,0,0.4,0.1,0.6,0.1c0.4,0.1,0.7,0.4,0.8,0.7c0,0,0,0,0,0v-1.7
				c0,0,0,0,0,0c-0.1,0.3-0.3,0.5-0.6,0.6C175.2,51,174.9,51.1,174.7,51.2z M175.4,46.8c0.8,0.2,1.4,0.6,1.7,1.4c0,0,0,0,0,0
				l-0.1-1.4H175.4z"/>
		</g>
		<g>
			<path class="st1" d="M267.1,55.4c0.1,0,0.2,0,0.3,0.2c0.4,1,1.1,1.6,2.1,1.9c1,0.2,2,0.3,3,0.1c0.8-0.2,1.4-0.6,1.9-1.3
				c0.7-1,0.6-2.2-0.2-3.1c-0.5-0.5-1.1-0.8-1.7-1.1c-0.9-0.4-1.9-0.7-2.8-1.1c-0.4-0.2-0.8-0.4-1.2-0.6c-0.1-0.1-0.2-0.1-0.3-0.2
				c-0.8-0.6-0.9-1.6-0.4-2.4c0.4-0.6,1.1-0.9,1.8-1.1c1.6-0.3,3.1-0.1,4.6,0.6c0.2,0.1,0.2,0.2,0.2,0.3c0,0.4,0,0.9,0,1.3
				c0,0,0,0.1,0,0.1c-0.2,0.1-0.3,0-0.4-0.2c-0.1-0.1-0.1-0.3-0.2-0.4c-0.3-0.8-0.9-1.3-1.6-1.5c-1-0.3-1.9-0.3-2.9,0
				c-0.3,0.1-0.6,0.2-0.8,0.4c-0.5,0.3-0.6,0.8-0.5,1.4c0,0.3,0.2,0.5,0.4,0.6c0.4,0.2,0.7,0.5,1.1,0.6c0.8,0.3,1.6,0.6,2.4,0.9
				c0.8,0.3,1.6,0.6,2.3,1.2c1.2,1,1.6,2.5,0.8,3.8c-0.5,0.9-1.3,1.4-2.2,1.7c-0.3,0.1-0.7,0.2-1,0.2c-1.3,0-2.6-0.1-3.9-0.5
				c-0.2-0.1-0.5-0.2-0.7-0.3c-0.1,0-0.1-0.1-0.1-0.1C267.1,56.4,267.1,55.9,267.1,55.4z"/>
			<path class="st1" d="M271.4,57.9c-1.3,0-2.5-0.2-3.5-0.5c-0.2-0.1-0.4-0.2-0.7-0.3l-0.1,0c-0.1,0-0.2-0.1-0.2-0.3
				c0-0.4,0-0.8,0-1.2v-0.4l0.1,0c0.1,0,0.3-0.1,0.5,0.2c0.4,1,1.1,1.6,2.1,1.8c1.2,0.3,2.1,0.3,2.9,0.1c0.8-0.2,1.4-0.6,1.8-1.2
				c0.7-0.9,0.6-2.1-0.2-2.9c-0.4-0.4-1-0.8-1.7-1c-0.5-0.2-0.9-0.4-1.4-0.5c-0.5-0.2-1-0.4-1.4-0.6c-0.3-0.1-0.6-0.3-0.9-0.4
				l-0.3-0.1c-0.1-0.1-0.2-0.1-0.3-0.2c-0.8-0.7-1-1.7-0.4-2.6c0.4-0.6,1-1,1.9-1.1c1.5-0.3,3.1-0.1,4.7,0.6
				c0.2,0.1,0.3,0.2,0.3,0.4c0,0.3,0,0.6,0,0.9l0,0.4c0,0,0,0.1,0,0.1l0,0.1l-0.1,0c-0.3,0.1-0.5-0.1-0.5-0.2c0-0.1-0.1-0.2-0.1-0.2
				c0-0.1-0.1-0.1-0.1-0.2c-0.3-0.7-0.8-1.2-1.6-1.4c-0.9-0.2-1.9-0.2-2.8,0c-0.3,0.1-0.5,0.2-0.8,0.4c-0.4,0.3-0.5,0.7-0.5,1.3
				c0,0.2,0.1,0.4,0.3,0.5l0.1,0.1c0.3,0.2,0.6,0.4,1,0.5c0.5,0.2,1,0.4,1.5,0.5c0.3,0.1,0.6,0.2,1,0.3c0.7,0.3,1.6,0.6,2.3,1.2
				c1.3,1,1.6,2.6,0.8,4c-0.5,0.9-1.3,1.5-2.3,1.8c-0.4,0.1-0.7,0.2-1,0.2C271.7,57.9,271.6,57.9,271.4,57.9z M267.2,56.9
				C267.2,56.9,267.3,56.9,267.2,56.9l0.1,0.1c0.2,0.1,0.4,0.2,0.6,0.2c0.5,0.2,1.1,0.3,1.7,0.3c0,0-0.1,0-0.1,0
				c-1-0.2-1.8-0.9-2.2-1.9c0,0,0-0.1-0.1-0.1v0.2C267.2,56.1,267.2,56.5,267.2,56.9C267.2,56.9,267.2,56.9,267.2,56.9z M268.7,47.2
				c-0.3,0.2-0.6,0.4-0.8,0.7c-0.5,0.8-0.4,1.6,0.3,2.2c0.1,0.1,0.2,0.1,0.3,0.2l0.3,0.1c0.3,0.2,0.6,0.3,0.9,0.4
				c0.5,0.2,1,0.4,1.4,0.6c0.5,0.2,0.9,0.4,1.4,0.5c0.7,0.3,1.3,0.6,1.8,1.1c0.9,0.9,1,2.2,0.3,3.2c-0.2,0.3-0.5,0.6-0.8,0.8
				c0.5-0.3,0.9-0.7,1.2-1.2c0.7-1.2,0.4-2.7-0.8-3.6c-0.7-0.6-1.5-0.9-2.3-1.2c-0.3-0.1-0.6-0.2-1-0.3c-0.5-0.2-1-0.3-1.5-0.5
				c-0.4-0.1-0.7-0.4-1-0.6l-0.1-0.1c-0.2-0.2-0.4-0.4-0.4-0.7c-0.1-0.6,0.1-1.2,0.6-1.5C268.6,47.3,268.6,47.2,268.7,47.2z
				 M272.3,46.8C272.3,46.8,272.3,46.8,272.3,46.8c0.9,0.2,1.5,0.8,1.8,1.6c0,0.1,0,0.1,0.1,0.2c0,0.1,0.1,0.2,0.1,0.3
				c0,0.1,0,0.1,0.1,0.1c0,0,0,0,0,0l0-0.4c0-0.3,0-0.6,0-0.9c0-0.1,0-0.2-0.1-0.2C273.6,47.1,272.9,46.9,272.3,46.8z"/>
		</g>
		<g>
			<path class="st1" d="M214.5,46.9c-0.1,0-0.2,0-0.2,0c-0.6,0-1.2,0-1.9,0c-1,0-1.7,0.5-2.1,1.3c0,0.1-0.1,0.1-0.1,0.2
				c-0.1,0.2-0.1,0.2-0.4,0.2c0-0.2,0.1-0.5,0.1-0.7c0-0.3,0.1-0.6,0.1-0.9c0-0.2,0.1-0.2,0.2-0.2c1.1,0,2.3,0,3.4,0
				c2,0,3.9,0,5.9,0c0.1,0,0.1,0,0.2,0c0.1,0.6,0.2,1.2,0.2,1.8c-0.2,0.1-0.3,0-0.4-0.2c-0.3-0.7-0.9-1.2-1.7-1.4
				c-0.1,0-0.2,0-0.3,0c-0.8,0-1.5,0-2.3,0c0,0,0,0-0.1,0c0,0.1,0,0.1,0,0.2c0,3.1,0,6.2,0,9.3c0,0.1,0,0.2,0,0.4
				c0.1,0.5,0.3,0.7,0.8,0.7c0,0.1,0,0.2,0,0.2c-0.8,0-1.6,0-2.5,0c0-0.1,0-0.1,0-0.2c0,0,0.1,0,0.1,0c0.5-0.1,0.7-0.3,0.7-0.8
				c0-0.1,0-0.2,0-0.3c0-3.1,0-6.2,0-9.3C214.5,47,214.5,47,214.5,46.9z"/>
			<path class="st1" d="M216.3,57.8h-2.7v-0.5l0.1,0c0.1,0,0.1,0,0.1,0c0.4-0.1,0.6-0.2,0.6-0.7c0-0.1,0-0.2,0-0.3V47h-0.8
				c-0.4,0-0.8,0-1.2,0c0,0,0,0,0,0c-0.9,0-1.5,0.4-2,1.2c0,0,0,0.1-0.1,0.1l0,0c-0.1,0.3-0.2,0.3-0.5,0.3l-0.1,0l0-0.4
				c0-0.2,0-0.3,0.1-0.5l0-0.4c0-0.2,0.1-0.4,0.1-0.6c0-0.2,0.1-0.3,0.4-0.3c0,0,0,0,0,0c0.8,0,1.7,0,2.5,0l7.1,0l0.3,2l-0.1,0
				c-0.2,0.1-0.4,0-0.5-0.2c-0.3-0.7-0.9-1.2-1.6-1.3c-0.1,0-0.2,0-0.2,0c-0.6,0-1.3,0-1.9,0h-0.3l0,9.4c0,0.1,0,0.2,0,0.3
				c0.1,0.4,0.2,0.6,0.7,0.6l0.1,0V57.8z M213.9,57.6h2.1c-0.5-0.1-0.7-0.3-0.7-0.8c0-0.1,0-0.2,0-0.4l0-9.6l0,0h-0.6v9.6
				c0,0.1,0,0.2,0,0.3C214.6,57.2,214.4,57.5,213.9,57.6z M218.1,46.8c0.8,0.2,1.4,0.7,1.7,1.5c0,0.1,0.1,0.1,0.1,0.1l-0.2-1.6
				H218.1z M210.3,46.8C210.2,46.8,210.2,46.8,210.3,46.8c-0.1,0.3-0.1,0.5-0.2,0.7l0,0.4c0,0.2,0,0.3-0.1,0.5l0,0.1c0,0,0,0,0,0
				c0,0,0-0.1,0.1-0.1l0,0c0,0,0-0.1,0.1-0.1c0.4-0.7,1-1.1,1.6-1.3C211.3,46.8,210.8,46.8,210.3,46.8
				C210.3,46.8,210.3,46.8,210.3,46.8z"/>
		</g>
		<g>
			<path class="st1" d="M234.5,57.5c0,0.1,0,0.1,0,0.2c-0.8,0-1.6,0-2.4,0c-0.1-0.2-0.1-0.2,0.2-0.3c0.3-0.1,0.5-0.2,0.6-0.6
				c0-0.2,0-0.3,0-0.5c0-2.8,0-5.7,0-8.5c0-0.2-0.1-0.4-0.1-0.7c-0.1-0.2-0.3-0.3-0.5-0.4c-0.2,0-0.2,0-0.2-0.2c0.8,0,1.6,0,2.5,0
				c0.1,0.2,0,0.2-0.2,0.3c-0.3,0-0.5,0.2-0.6,0.5c0,0.2-0.1,0.3-0.1,0.5c0,2.8,0,5.6,0,8.5c0,0,0,0.1,0,0.1
				C233.7,57.1,233.9,57.4,234.5,57.5z"/>
			<path class="st1" d="M234.6,57.8H232l0-0.1c0-0.1-0.1-0.2,0-0.3c0.1-0.1,0.2-0.1,0.3-0.1c0.3,0,0.4-0.2,0.5-0.5
				c0-0.1,0-0.3,0-0.4c0-2.8,0-5.7,0-8.5c0-0.2,0-0.4-0.1-0.6c-0.1-0.2-0.2-0.3-0.4-0.3c-0.3,0-0.3-0.1-0.3-0.4l0-0.1h2.7l0,0.1
				c0,0.1,0.1,0.2,0,0.3c-0.1,0.1-0.2,0.1-0.3,0.1c-0.2,0-0.4,0.2-0.5,0.4c0,0.1,0,0.3,0,0.5c0,2.3,0,4.5,0,6.8l0,1.8
				c0,0.5,0.2,0.7,0.7,0.8l0.1,0V57.8z M232.2,57.6h2.1c-0.5-0.1-0.7-0.4-0.8-1l0-0.1v-1.7c0-2.3,0-4.5,0-6.8c0-0.2,0-0.3,0.1-0.5
				c0.1-0.4,0.3-0.6,0.7-0.6c0,0,0,0,0,0h-2c0.2,0.1,0.4,0.2,0.5,0.4c0.1,0.3,0.1,0.5,0.1,0.7c0,2.8,0,5.7,0,8.5
				c0,0.2,0,0.3-0.1,0.5C232.9,57.3,232.6,57.5,232.2,57.6C232.2,57.6,232.2,57.6,232.2,57.6z"/>
		</g>
	</g>
</g>
</svg>
